<svg width="43" height="61" viewBox="0 0 43 61" fill="none" xmlns="http://www.w3.org/2000/svg">
<g filter="url(#filter0_d)">
<path d="M21.5 0C11.8289 0 4 8.04464 4 17.9821C4 23.1875 8.60526 32.1786 8.60526 32.1786L20.5789 53L33.4737 32.1786C33.4737 32.1786 39 23.6607 39 17.9821C39 8.04464 31.1711 0 21.5 0ZM21.5 27.9196C15.9737 27.9196 11.3684 23.1875 11.3684 17.5089C11.3684 11.8304 15.9737 7.09821 21.5 7.09821C27.0263 7.09821 31.1711 11.8304 31.1711 17.5089C31.1711 23.1875 27.0263 27.9196 21.5 27.9196Z" fill="#2F80ED"/>
</g>
<defs>
<filter id="filter0_d" x="0" y="0" width="43" height="61" filterUnits="userSpaceOnUse" color-interpolation-filters="sRGB">
<feFlood flood-opacity="0" result="BackgroundImageFix"/>
<feColorMatrix in="SourceAlpha" type="matrix" values="0 0 0 0 0 0 0 0 0 0 0 0 0 0 0 0 0 0 127 0" result="hardAlpha"/>
<feOffset dy="4"/>
<feGaussianBlur stdDeviation="2"/>
<feComposite in2="hardAlpha" operator="out"/>
<feColorMatrix type="matrix" values="0 0 0 0 0 0 0 0 0 0 0 0 0 0 0 0 0 0 0.25 0"/>
<feBlend mode="normal" in2="BackgroundImageFix" result="effect1_dropShadow"/>
<feBlend mode="normal" in="SourceGraphic" in2="effect1_dropShadow" result="shape"/>
</filter>
</defs>
</svg>
