<svg width="88" height="185" viewBox="0 0 88 185" fill="none" xmlns="http://www.w3.org/2000/svg">
<path fill-rule="evenodd" clip-rule="evenodd" d="M9.39806 162.206H8.54369V156.905L5.98058 162.206H5.411L2.8479 156.905C2.8479 157.17 2.8479 157.701 2.8479 158.496C2.8479 159.291 2.8479 160.351 2.8479 160.881C3.13269 161.676 3.13269 162.206 3.13269 162.206H1.99353V155.845H3.41748L5.69579 161.146L8.2589 155.845H9.39806V162.206ZM0.854369 130.136H10.5372C13.6699 130.136 16.233 131.196 18.2265 133.052C20.2201 134.907 21.0744 137.557 21.0744 141.003C21.0744 142.593 21.0744 143.918 20.5049 145.244C20.2201 146.304 19.6505 147.364 18.7961 148.689C17.9417 149.749 16.8026 150.544 15.3786 151.075C13.6699 151.605 11.9612 151.87 9.68285 151.87H0.854369V130.136ZM4.27184 132.787V149.484H9.96764C12.5307 149.484 14.5243 148.689 15.9482 147.364C17.0874 145.774 17.9417 143.653 17.9417 141.003C17.9417 138.617 17.0874 136.497 15.9482 134.907C14.5243 133.582 12.5307 132.787 9.96764 132.787H4.27184ZM44.712 151.87H40.7249L33.89 142.593H27.3398V151.87H24.2071V130.136H35.3139C37.877 130.136 39.8706 130.666 41.2945 131.726C42.7184 132.787 43.5728 134.377 43.5728 136.497C43.5728 138.087 43.0032 139.413 42.1489 140.473C41.2945 141.533 39.5858 142.328 37.5922 142.593L44.712 151.87ZM27.3398 140.208H34.7443C38.4466 140.208 40.1553 139.148 40.1553 136.497C40.1553 135.172 39.8706 134.377 39.0162 133.582C38.1618 133.052 36.7379 132.521 35.3139 132.521H27.3398V140.208ZM46.9903 130.136H50.123V144.713C50.123 146.304 50.6926 147.629 51.5469 148.689C52.6861 149.484 54.11 150.014 56.1036 150.014C58.3819 150.014 59.8058 149.484 60.945 148.424C61.7994 147.364 62.3689 146.039 62.3689 144.183V130.136H65.7864V144.713C65.7864 146.834 64.932 148.689 63.2233 150.279C61.5146 151.87 59.2362 152.665 56.1036 152.665C53.2557 152.665 50.9773 151.87 49.2686 150.544C47.8447 148.954 46.9903 147.364 46.9903 144.979V130.136ZM87.4304 130.136V151.87H84.0129V142.593H79.4563C77.7476 142.593 76.3236 142.858 75.4693 143.388C74.3301 143.918 73.7605 144.448 73.4757 145.244C72.9062 146.039 72.9062 146.834 72.6214 147.629C72.3366 148.424 72.3366 149.219 72.0518 150.014C71.767 150.809 71.1974 151.605 70.9126 151.87H66.9256C67.4951 151.605 68.0647 150.809 68.6343 150.014C68.9191 149.219 69.2039 148.424 69.2039 147.629C69.4887 146.834 69.7735 146.039 69.7735 145.244C70.0583 144.448 70.6278 143.653 71.1974 143.123C71.767 142.593 72.6214 142.063 73.4757 141.798C72.0518 141.533 70.9126 141.003 70.0583 140.208C69.2039 139.413 68.6343 138.087 68.6343 136.497C68.6343 134.642 69.4887 133.052 70.9126 131.726C72.3366 130.666 74.3301 130.136 76.8932 130.136H87.4304ZM84.0129 140.208V132.787H76.6084C74.8997 132.787 73.7605 133.052 73.1909 133.847C72.6214 134.642 72.0518 135.437 72.0518 136.497C72.0518 137.822 72.6214 138.883 73.1909 139.413C74.0453 139.943 75.4693 140.208 77.178 140.208H84.0129ZM56.3884 64.4054H60.3754V90.9097H56.3884V64.4054ZM37.0227 126.16H50.123V127.486H37.0227V126.16ZM37.0227 124.57H50.123V125.63H37.0227V124.57ZM37.0227 122.715H50.123V124.04H37.0227V122.715ZM64.0777 121.655H86.2913V122.185V126.426V127.221H64.6472H50.9773V122.715H64.0777V121.655ZM1.13916 121.655H23.3528V122.715H36.4531V127.221H23.3528H1.13916V126.426V122.185V121.655ZM87.4304 97.0057H61.7994V98.861H87.4304V97.0057ZM76.3236 104.692C75.4693 104.692 74.6149 105.222 74.6149 106.017V109.198H78.3172V106.017C78.3172 105.222 77.4628 104.692 76.3236 104.692ZM65.5016 79.7779H62.6537V91.1748H64.3625V95.4155H62.6537V96.2106H86.2913C86.0065 94.3553 84.2977 93.0301 81.4498 93.0301C73.4757 92.235 65.5016 86.6691 65.5016 79.7779ZM62.6537 99.3911V121.125H86.2913V99.3911H62.6537ZM0 97.0057H25.6311V98.861H0V97.0057ZM11.1068 104.692C11.9612 104.692 12.8155 105.222 12.8155 106.017V109.198H9.11327V106.017C9.11327 105.222 9.96764 104.692 11.1068 104.692ZM21.9288 79.7779H24.7767V91.1748H23.068V95.4155H24.7767V96.2106H1.13916C1.42395 94.3553 3.13269 93.0301 5.98058 93.0301C13.9547 92.235 21.644 86.6691 21.9288 79.7779ZM24.7767 99.3911V121.125H1.13916V99.3911H24.7767ZM42.4337 1.32521L43.288 2.12034V0H44.1424V2.12034L45.2816 1.06017L45.5663 1.32521L44.1424 2.12034H46.4207V2.65043H44.1424L45.2816 3.44556L44.9968 3.7106L44.1424 2.91547V4.77077H43.288V2.91547L42.1489 3.7106H41.8641L43.0032 2.65043H40.7249V2.12034H43.0032L42.1489 1.32521H42.4337ZM54.9644 38.6963H58.6667V60.1648H54.9644V38.6963ZM56.3884 95.1504H60.3754V121.655H56.3884V95.1504ZM25.9159 92.235H61.5146V94.6203H25.9159V92.235ZM25.9159 61.2249H61.5146V63.6103H25.9159V61.2249ZM27.6246 36.0458H59.521V37.9011H27.6246V36.0458ZM51.8317 20.1433H54.3948V35.2507H51.8317V20.1433ZM43.5728 5.83095C44.4272 5.83095 45.2816 6.09599 45.2816 6.89112C45.2816 7.4212 44.4272 7.95129 43.5728 7.95129C43.0032 7.95129 42.1489 7.4212 42.1489 6.89112C42.1489 6.09599 43.0032 5.83095 43.5728 5.83095ZM32.1812 17.7579H38.4466C38.1618 18.0229 37.877 18.8181 37.877 19.3481H32.1812V17.7579ZM43.8576 8.21633L46.1359 10.3367L47.5599 11.6619C50.123 12.7221 52.1165 14.5774 52.6861 16.6977H48.4142C47.2751 15.6375 45.5663 15.1075 43.5728 15.1075C41.8641 15.1075 40.1553 15.6375 39.0162 16.6977H34.7443C35.3139 14.5774 37.3074 12.7221 39.8706 11.6619L41.2945 10.3367L43.8576 8.21633ZM48.9838 17.7579H55.2492V19.3481H49.5534C49.5534 18.8181 49.2686 18.0229 48.9838 17.7579ZM43.8576 16.4327C46.4207 16.4327 48.699 18.0229 48.9838 20.1433H50.9773V35.2507H47.8447V28.3596V28.0946C47.8447 26.5043 45.8511 25.4441 43.5728 25.4441C41.5793 25.4441 39.5858 26.5043 39.5858 28.0946V28.3596V35.2507H36.4531V20.1433H38.7314C38.7314 18.0229 41.0097 16.4327 43.8576 16.4327ZM33.0356 20.1433H35.5987V35.2507H33.0356V20.1433ZM43.5728 98.861C46.4207 98.861 48.9838 100.451 48.9838 102.572C48.9838 104.692 46.4207 106.547 43.5728 106.547C40.7249 106.547 38.4466 104.692 38.4466 102.572C38.4466 100.451 40.7249 98.861 43.5728 98.861ZM27.055 95.1504H31.0421V121.655H27.055V95.1504ZM31.8964 95.1504H55.534V121.655H50.9773V115.029V114.764C50.6926 111.848 47.5599 109.463 43.5728 109.463C39.8706 109.463 36.7379 111.848 36.4531 114.764V115.029V121.655H31.8964V95.1504ZM28.7638 38.6963H32.1812V60.1648H28.7638V38.6963ZM33.3204 38.6963H54.11V60.1648H47.8447V53.5387V53.2736C47.8447 51.6834 45.8511 50.3582 43.5728 50.3582C41.5793 50.3582 39.5858 51.6834 39.5858 53.2736V53.5387V60.1648H33.3204V38.6963ZM43.5728 76.0673C45.8511 76.0673 47.8447 77.3926 47.8447 78.9828V79.2479V86.404H39.5858V79.2479V78.9828C39.5858 77.3926 41.5793 76.0673 43.5728 76.0673ZM27.055 64.4054H31.0421V90.9097H27.055V64.4054ZM31.8964 64.4054H55.534V90.9097H31.8964V64.4054ZM19.6505 155.845H20.5049L17.0874 163.532C16.8026 163.797 16.8026 164.062 16.5178 164.327C16.5178 164.592 16.5178 164.592 16.233 164.857C16.233 165.122 15.9482 165.387 15.6634 165.387C15.6634 165.387 15.3786 165.387 15.0939 165.387C14.8091 165.387 14.5243 165.387 14.2395 165.122V164.327C14.5243 164.592 14.8091 164.592 15.0939 164.592C15.3786 164.592 15.6634 164.592 15.6634 164.592C15.6634 164.327 15.9482 164.062 15.9482 163.797L16.8026 162.206L14.2395 155.845H15.0939L17.0874 161.411L19.6505 155.845ZM26.7702 158.761H27.3398C27.9094 158.761 28.1942 158.496 28.479 158.496C28.7638 158.231 29.0485 157.966 29.0485 157.436C29.0485 156.905 28.479 156.375 27.6246 156.375C26.4854 156.375 25.9159 156.905 25.6311 157.701L24.7767 157.436C25.0615 156.905 25.3463 156.64 25.6311 156.375C26.2006 155.845 26.7702 155.845 27.6246 155.845C28.1942 155.845 28.7638 155.845 29.3333 156.11C29.6181 156.375 29.9029 156.905 29.9029 157.436C29.9029 158.231 29.6181 158.761 28.7638 159.026C29.6181 159.026 30.1877 159.556 30.1877 160.616C30.1877 161.146 29.9029 161.676 29.6181 161.941C29.0485 162.206 28.1942 162.471 27.3398 162.471C26.4854 162.471 25.9159 162.206 25.3463 161.941C25.0615 161.941 24.7767 161.411 24.4919 160.616L25.3463 160.351C25.6311 161.411 26.2006 161.676 27.3398 161.676C27.9094 161.676 28.479 161.676 28.7638 161.411C29.0485 161.146 29.3333 160.881 29.3333 160.616C29.3333 159.821 28.7638 159.291 27.6246 159.291H26.7702V158.761ZM35.8835 159.026V159.291C35.8835 159.556 35.8835 159.821 35.8835 160.086C36.1683 160.351 36.1683 160.616 36.4531 160.881C36.4531 161.146 36.7379 161.411 37.0227 161.411C37.3074 161.676 37.877 161.676 38.1618 161.676C39.301 161.676 40.1553 161.146 40.7249 160.351L41.2945 160.616C40.7249 161.676 39.8706 162.471 38.4466 162.471C37.877 162.471 37.3074 162.206 36.7379 162.206C36.4531 161.941 36.1683 161.676 35.8835 161.676C35.5987 161.411 35.3139 161.146 35.3139 160.616C35.0291 160.351 35.0291 160.086 35.0291 159.821C35.0291 159.556 35.0291 159.291 35.0291 159.026C35.0291 157.966 35.3139 157.17 35.8835 156.64C36.4531 156.11 37.3074 155.845 38.1618 155.845C39.301 155.845 39.8706 156.11 40.4401 156.64C41.0097 157.436 41.2945 158.231 41.2945 159.026H35.8835ZM35.8835 158.496H40.4401C40.4401 157.966 40.1553 157.701 40.1553 157.436C39.8706 157.17 39.5858 156.905 39.5858 156.905C39.301 156.64 39.0162 156.64 38.7314 156.64C38.7314 156.64 38.4466 156.375 38.1618 156.375C37.5922 156.375 37.0227 156.64 36.4531 157.17C36.1683 157.436 35.8835 157.966 35.8835 158.496ZM52.6861 162.206H51.5469V157.436L47.5599 161.411V162.206H46.7055V155.845H47.5599V160.616L51.5469 156.64V155.845H52.6861V162.206ZM50.9773 153.195L51.8317 153.46C51.8317 153.725 51.5469 154.255 50.9773 154.52C50.6926 154.785 50.123 154.785 49.5534 154.785C48.9838 154.785 48.699 154.785 48.1295 154.52C47.8447 154.255 47.5599 153.725 47.5599 153.46L48.1295 153.195C48.4142 153.725 48.699 154.255 49.5534 154.255C50.4078 154.255 50.9773 153.725 50.9773 153.195ZM64.0777 162.206H63.2233V156.64H59.2362V162.206H58.3819V155.845H64.0777V162.206ZM75.754 159.026C75.754 160.086 75.4693 160.881 74.8997 161.676C74.0453 162.206 73.4757 162.471 72.6214 162.471C71.4822 162.471 70.9126 162.206 70.343 161.411C69.4887 160.881 69.2039 160.086 69.2039 159.291C69.2039 158.231 69.4887 157.436 70.0583 156.64C70.9126 156.11 71.4822 155.845 72.6214 155.845C73.7605 155.845 74.3301 156.11 74.8997 156.905C75.4693 157.436 75.754 158.231 75.754 159.026ZM74.8997 159.026C74.8997 158.231 74.6149 157.436 74.3301 157.17C73.7605 156.64 73.1909 156.375 72.6214 156.375C71.767 156.375 71.1974 156.64 70.9126 157.17C70.343 157.701 70.343 158.231 70.343 159.291C70.343 160.086 70.6278 160.616 70.9126 161.146C71.4822 161.411 71.767 161.676 72.6214 161.676C73.1909 161.676 73.7605 161.411 74.0453 161.146C74.6149 160.616 74.8997 160.086 74.8997 159.026ZM86.8608 161.676H88V163.797H87.1456V162.206H81.1651V163.797H80.3107V161.676C81.4498 161.146 82.0194 159.556 82.0194 156.905V155.845H86.8608V161.676ZM86.0065 156.64H82.8738V156.905C82.8738 158.231 82.8738 159.026 82.589 159.821C82.3042 160.881 82.0194 161.411 81.4498 161.676H86.0065V156.64ZM8.2589 170.423C8.2589 171.483 7.68932 172.278 7.11974 172.808C6.55016 173.338 5.69579 173.603 4.84142 173.603C3.98706 173.603 3.13269 173.338 2.56311 172.808C1.99353 172.278 1.70874 171.483 1.70874 170.423C1.70874 169.362 1.99353 168.567 2.56311 168.037C3.13269 167.507 3.98706 166.977 4.84142 166.977C5.98058 166.977 6.83495 167.507 7.40453 168.037C7.68932 168.832 7.97411 169.362 8.2589 170.423ZM7.11974 170.423C7.11974 169.362 6.83495 168.832 6.55016 168.302C5.98058 168.037 5.411 167.772 4.84142 167.772C4.27184 167.772 3.70227 168.037 3.13269 168.567C2.8479 168.832 2.56311 169.628 2.56311 170.423C2.56311 171.483 2.8479 172.013 3.13269 172.543C3.70227 172.808 4.27184 173.073 4.84142 173.073C5.411 173.073 5.98058 172.808 6.55016 172.278C6.83495 172.013 7.11974 171.218 7.11974 170.423ZM18.2265 168.037H15.6634V173.603H14.8091V168.037H12.246V167.242H18.2265V168.037ZM23.9223 167.242V169.893H25.3463C25.9159 169.893 26.2006 169.893 26.4854 169.628C26.7702 169.362 26.7702 169.097 26.7702 168.832C26.7702 168.832 27.055 168.302 27.055 168.037C27.055 167.772 27.3398 167.507 27.3398 167.242H28.479C28.1942 167.507 28.1942 167.772 27.9094 168.037C27.9094 168.567 27.6246 168.832 27.6246 169.097C27.6246 169.362 27.6246 169.362 27.3398 169.628C27.3398 169.893 27.055 170.158 26.4854 170.158C27.055 170.158 27.3398 170.423 27.3398 170.688C27.6246 170.953 27.9094 171.218 27.9094 171.483C27.9094 171.748 27.9094 172.013 28.1942 172.543C28.1942 172.808 28.479 173.338 28.479 173.603H27.6246C27.3398 173.338 27.3398 173.073 27.3398 172.808C27.055 172.543 27.055 172.278 27.055 172.013C27.055 171.748 27.055 171.483 26.7702 171.483C26.7702 171.218 26.4854 170.953 26.2006 170.688C26.2006 170.688 25.6311 170.688 25.3463 170.688H23.9223V173.603H23.068V167.242H23.9223ZM33.3204 167.242H34.1748V168.302C34.4595 168.037 34.7443 167.772 35.0291 167.507C35.3139 167.242 35.8835 167.242 36.4531 167.242C37.0227 167.242 37.3074 167.242 37.877 167.242C38.1618 167.507 38.4466 167.772 38.7314 168.037C38.7314 168.037 39.0162 168.302 39.0162 168.832C39.301 169.097 39.301 169.362 39.301 169.628C39.301 169.893 39.301 170.158 39.301 170.423C39.301 170.688 39.301 171.218 39.301 171.483C39.301 171.748 39.0162 172.013 38.7314 172.543C38.7314 172.808 38.4466 173.073 37.877 173.338C37.5922 173.603 37.0227 173.603 36.4531 173.603C35.8835 173.603 35.3139 173.603 35.0291 173.338C34.7443 173.073 34.4595 172.808 34.1748 172.543V176.784H33.3204V167.242ZM34.1748 170.423V170.688C34.1748 171.483 34.4595 172.013 35.0291 172.543C35.3139 172.808 35.8835 173.073 36.1683 173.073C36.7379 173.073 37.3074 172.808 37.5922 172.543C37.877 172.278 38.1618 172.013 38.1618 171.483C38.4466 171.218 38.4466 170.688 38.4466 170.423C38.4466 169.628 38.1618 168.832 37.877 168.567C37.5922 168.037 37.0227 167.772 36.4531 167.772C35.8835 167.772 35.5987 167.772 35.3139 168.037C35.0291 168.302 34.7443 168.567 34.7443 168.832C34.4595 169.097 34.4595 169.362 34.4595 169.628C34.1748 169.893 34.1748 170.158 34.1748 170.423ZM44.712 173.603V167.242H45.5663V169.893H46.4207C46.9903 169.893 47.2751 169.893 47.2751 169.893C47.5599 169.893 47.8447 169.893 48.1295 169.893C48.4142 169.893 48.699 169.893 48.9838 170.158C48.9838 170.158 49.2686 170.158 49.5534 170.423C49.5534 170.423 49.8382 170.688 49.8382 170.953C49.8382 171.218 50.123 171.483 50.123 171.748C50.123 172.278 49.8382 172.808 49.5534 173.073C48.9838 173.338 48.4142 173.603 47.8447 173.603H44.712ZM45.5663 172.808H46.9903C47.8447 172.808 48.4142 172.808 48.699 172.543C48.9838 172.543 48.9838 172.278 48.9838 171.748C48.9838 171.218 48.9838 170.953 48.4142 170.688C48.1295 170.423 47.5599 170.423 46.9903 170.423H45.5663V172.808ZM51.8317 173.603H50.9773V167.242H51.8317V173.603ZM62.3689 168.037H60.0906V173.603H58.9515V168.037H56.6731V167.242H62.3689V168.037ZM67.2104 173.603V167.242H68.0647V169.893H68.9191C69.4887 169.893 69.7735 169.893 70.0583 169.893C70.0583 169.893 70.343 169.893 70.6278 169.893C71.1974 169.893 71.1974 169.893 71.4822 170.158C71.767 170.158 71.767 170.158 72.0518 170.423C72.3366 170.423 72.3366 170.688 72.3366 170.953C72.6214 171.218 72.6214 171.483 72.6214 171.748C72.6214 172.278 72.3366 172.808 72.0518 173.073C71.4822 173.338 71.1974 173.603 70.343 173.603H67.2104ZM68.0647 172.808H69.4887C70.343 172.808 70.9126 172.808 71.1974 172.543C71.4822 172.543 71.767 172.278 71.767 171.748C71.767 171.218 71.4822 170.953 71.1974 170.688C70.6278 170.423 70.0583 170.423 69.4887 170.423H68.0647V172.808ZM74.3301 173.603H73.4757V167.242H74.3301V173.603ZM87.4304 173.603H86.5761V168.302L84.0129 173.603H83.4434L80.8803 168.302C80.8803 168.302 80.8803 168.832 80.8803 169.893C80.8803 170.688 80.8803 171.483 80.8803 172.278C80.8803 173.073 80.8803 173.603 80.8803 173.603H80.0259V167.242H81.1651L83.7282 172.278L86.0065 167.242H87.4304V173.603ZM7.68932 184.735H6.83495V181.819H3.13269V184.735H1.99353V178.639H3.13269V181.289H6.83495V178.639H7.68932V184.735ZM22.2136 181.819C22.2136 182.085 22.2136 182.35 22.2136 182.615C22.2136 182.88 22.4984 183.145 22.4984 183.41C22.7832 183.675 23.068 183.94 23.3528 183.94C23.6375 184.205 24.2071 184.205 24.4919 184.205C25.6311 184.205 26.4854 183.94 26.7702 182.88L27.6246 183.145C27.055 184.47 26.2006 185 24.4919 185C23.9223 185 23.6375 185 23.068 184.735C22.7832 184.47 22.4984 184.47 22.2136 184.205C21.9288 183.94 21.644 183.675 21.644 183.41C21.3592 182.88 21.3592 182.615 21.3592 182.35C21.3592 182.085 21.0744 181.819 21.0744 181.554C21.0744 180.494 21.644 179.699 22.2136 179.169C22.7832 178.639 23.6375 178.374 24.4919 178.374C25.3463 178.374 26.2006 178.639 26.7702 179.434C27.3398 179.964 27.6246 180.759 27.6246 181.554V181.819H22.2136ZM22.2136 181.024H26.7702C26.7702 180.759 26.4854 180.229 26.4854 179.964C26.2006 179.699 25.9159 179.699 25.9159 179.434C25.6311 179.434 25.3463 179.169 25.0615 179.169C24.7767 179.169 24.7767 179.169 24.4919 179.169C23.9223 179.169 23.3528 179.169 22.7832 179.699C22.4984 179.964 22.2136 180.494 22.2136 181.024ZM46.1359 175.458H46.9903C46.9903 176.254 46.4207 176.784 45.2816 176.784C43.8576 177.049 43.0032 177.314 42.4337 177.579C42.1489 178.109 41.8641 178.904 41.5793 179.699C41.8641 179.434 42.4337 179.169 42.7184 178.904C43.288 178.639 43.5728 178.639 44.1424 178.639C45.2816 178.639 45.8511 178.904 46.4207 179.434C46.9903 179.964 47.2751 180.759 47.2751 181.819C47.2751 182.085 47.2751 182.615 46.9903 182.88C46.9903 183.145 46.7055 183.675 46.7055 183.94C46.4207 184.205 46.1359 184.47 45.5663 184.735C44.9968 185 44.712 185 44.1424 185C43.0032 185 42.1489 184.735 41.5793 183.94C41.0097 183.41 40.7249 182.615 40.7249 181.554C40.7249 180.229 41.0097 179.169 41.2945 178.374C41.5793 177.579 41.8641 177.049 42.4337 176.784C43.288 176.519 44.1424 176.254 45.2816 176.254C45.5663 176.254 45.5663 176.254 45.8511 175.989C45.8511 175.989 45.8511 175.989 46.1359 175.989C46.1359 175.723 46.1359 175.723 46.1359 175.458ZM46.4207 181.819C46.4207 179.964 45.5663 179.169 44.1424 179.169C43.288 179.169 42.7184 179.434 42.4337 179.964C41.8641 180.494 41.8641 181.024 41.8641 181.819C41.8641 182.615 41.8641 183.145 42.4337 183.675C42.7184 184.205 43.288 184.205 44.1424 184.205C44.712 184.205 45.2816 184.205 45.5663 183.675C46.1359 183.145 46.4207 182.615 46.4207 181.819ZM66.6408 181.554C66.6408 182.88 66.356 183.675 65.7864 184.205C64.932 184.735 64.3625 185 63.5081 185C62.3689 185 61.7994 184.735 61.2298 184.205C60.3754 183.675 60.0906 182.88 60.0906 181.819C60.0906 180.759 60.3754 179.964 60.945 179.434C61.5146 178.639 62.3689 178.374 63.5081 178.374C64.3625 178.374 65.2168 178.639 65.7864 179.434C66.356 179.964 66.6408 180.759 66.6408 181.554ZM65.7864 181.554C65.7864 180.759 65.5016 179.964 64.932 179.699C64.6472 179.169 64.0777 179.169 63.5081 179.169C62.6537 179.169 62.0841 179.169 61.7994 179.699C61.2298 180.229 61.2298 180.759 61.2298 181.819C61.2298 182.615 61.2298 183.41 61.7994 183.675C62.3689 184.205 62.6537 184.205 63.5081 184.205C64.0777 184.205 64.6472 184.205 64.932 183.675C65.5016 183.145 65.7864 182.615 65.7864 181.554ZM87.4304 184.735H86.5761V179.699L84.0129 184.735H83.4434L80.8803 179.434C80.8803 179.699 80.8803 180.229 80.8803 181.024C80.8803 182.085 80.8803 182.88 80.8803 183.675C80.8803 184.47 80.8803 184.735 80.8803 184.735H80.0259V178.639H81.1651L83.7282 183.675L86.0065 178.639H87.4304V184.735Z" fill="#2F80ED"/>
</svg>
