<svg width="101" height="119" viewBox="0 0 101 119" fill="none" xmlns="http://www.w3.org/2000/svg">
<g filter="url(#filter0_d)">
<path d="M44.4802 0.0976651C48.4696 -0.0362254 52.4621 -0.0267745 56.4515 0.0913642C61.6319 0.316615 66.798 0.905734 71.9011 1.83509C79.4098 3.20393 86.8065 5.29262 93.812 8.3343C94.7253 8.72809 95.6481 9.10771 96.5141 9.60074C96.8217 9.75196 96.8817 10.1269 97 10.4183V32.1148C96.8943 32.4834 96.7271 32.8426 96.4495 33.1151C94.4603 35.0462 92.8418 37.398 91.9222 40.0207C91.0388 42.4953 91.0072 45.2487 91.796 47.7532C92.6557 50.4941 94.3294 52.923 96.3248 54.966C96.6072 55.2637 96.8202 55.6166 97 55.9836V67.3832C96.8265 68.4779 96.8801 69.5947 96.7334 70.6942C96.3406 73.9454 95.7428 77.2123 94.4224 80.2288C93.8009 81.8292 92.8513 83.2689 92.0089 84.7559C88.5164 90.0501 83.1026 93.7281 77.4727 96.4579C76.4663 96.8627 75.5072 97.3715 74.5292 97.8393C70.3032 99.7107 65.992 101.385 61.7518 103.225C60.1254 104.145 58.4076 104.895 56.808 105.862C55.2132 106.98 53.5506 108.045 52.2129 109.482C51.7144 110.023 51.2648 110.653 50.596 111C49.9098 110.968 49.536 110.307 49.1179 109.856C47.4174 108.054 45.3746 106.607 43.2419 105.359C40.1422 103.499 36.7444 102.229 33.4333 100.807C27.5478 98.3229 21.4983 95.9932 16.2864 92.227C12.2481 89.3523 8.83288 85.5104 6.81847 80.9597C5.03595 76.9997 4.19674 72.6648 4.01691 68.3409C4.01218 64.1887 4.02164 60.0365 4.0106 55.8843C3.99798 55.5362 4.30559 55.311 4.50592 55.0668C6.4036 53.1278 8.02996 50.8642 8.94646 48.2935C9.89609 45.7039 9.90082 42.8025 9.06477 40.1814C8.13407 37.3807 6.33735 34.9517 4.28666 32.863C3.86705 32.5228 4.04057 31.9463 4.01218 31.4816C4.02164 24.8627 4.01376 18.2453 4.01533 11.628C4.02322 11.0987 3.97905 10.5679 4.04215 10.0402C4.14311 9.69998 4.51223 9.55664 4.79775 9.40227C10.4719 6.71343 16.4646 4.73815 22.5536 3.22755C29.7357 1.4665 37.0946 0.437905 44.4802 0.0976651ZM51.1371 10.8562C51.1103 11.2405 51.5425 11.4043 51.7791 11.628C51.7681 14.5547 51.7791 17.4814 51.8201 20.4081C51.8501 20.4081 51.9084 20.4081 51.9368 20.4081C51.9889 20.0048 52.0883 19.6063 52.0883 19.1983C52.0725 16.7836 52.0899 14.3672 52.0851 11.9525C52.123 11.68 51.9968 11.2326 52.3848 11.1822C52.4101 11.5382 52.4211 11.8958 52.4495 12.2518C52.4495 11.7587 52.4558 11.261 52.3817 10.7727C52.194 10.2135 51.3106 10.3584 51.1371 10.8562ZM44.3714 15.1674C43.6 15.4258 42.775 15.3722 41.9752 15.3612L42.062 15.5975C42.7419 15.8054 43.4391 15.9771 44.1426 16.0858C45.0386 16.2417 45.8005 15.5691 46.6839 15.6164C47.613 15.6337 48.4333 16.1236 49.2709 16.467C49.8372 16.7032 50.4603 16.7048 51.0629 16.7379C51.2822 15.6683 51.1181 14.5421 51.1607 13.4489C50.0581 13.7876 48.8971 13.5608 47.7755 13.4773C46.4252 13.5686 45.657 14.9044 44.3714 15.1674ZM52.4259 19.7355C52.4274 20.0489 52.4306 20.364 52.4401 20.679C52.0883 20.8349 51.6845 20.8948 51.3327 20.7074C51.3469 20.3844 51.3532 20.0615 51.3579 19.7402C51.2317 19.7449 50.9778 19.7559 50.8516 19.7623C50.8878 20.4868 50.8405 21.213 50.8736 21.9376C51.4967 21.9596 52.1214 21.9155 52.7445 21.9533C52.7492 21.224 52.765 20.4947 52.7398 19.767C52.6609 19.7591 52.5047 19.7433 52.4259 19.7355ZM51.5062 25.0911C51.7286 25.1037 51.9526 25.121 52.1766 25.1368C52.0804 24.2893 51.8517 23.4608 51.593 22.6496C51.3989 23.445 51.5803 24.2799 51.5062 25.0911ZM37.8896 23.6624C37.8833 23.842 37.877 24.02 37.8723 24.1995C38.3849 24.3508 38.9213 24.3224 39.4466 24.3508C39.3393 23.6199 38.4512 23.653 37.8896 23.6624ZM39.6201 23.8231C39.6974 24.1129 39.8204 24.387 40.0034 24.6248C40.1895 24.617 40.3757 24.6201 40.5618 24.6374C43.9707 25.173 47.389 25.6282 50.7979 26.1591C51.2743 26.2426 51.7728 26.1638 52.2366 26.3355C52.4195 26.2111 52.8218 25.7794 52.9243 26.2016C52.9448 26.4505 53.2682 26.3355 53.4323 26.4064C54.079 26.7214 54.7842 26.8915 55.5082 26.8553C59.0874 27.3247 62.6651 27.8398 66.2317 28.4069C66.8548 28.451 67.4953 28.6904 68.0963 28.3958C68.0411 27.7027 67.2177 27.7075 66.7192 27.5058C66.3138 27.3294 65.8674 27.5374 65.4525 27.4161C62.1524 26.8301 58.8114 26.5371 55.5035 26C54.6233 25.77 53.7099 25.9401 52.8155 25.8535C49.8783 25.0265 46.8243 24.7981 43.8098 24.4421L43.6978 24.3445C42.3365 24.1885 40.9893 23.9034 39.6201 23.8231ZM41.1045 26.2961C43.7041 31.0185 47.1603 35.2085 50.8042 39.1575L51.0046 39.1654C50.973 35.4211 51.1229 31.6754 51.0203 27.9312C47.7203 27.3641 44.4218 26.7498 41.1045 26.2961ZM39.9513 27.2176C40.382 28.5045 41.2559 29.5725 41.9137 30.7429C43.3933 33.1781 45.2248 35.3723 47.0388 37.5618C47.8402 38.5447 48.7788 39.4016 49.6685 40.3011C50.0975 40.6854 50.4619 41.1469 50.9572 41.4525C51.0188 40.9768 51.1702 40.4302 50.9399 39.9876C49.7174 38.6833 48.5437 37.3318 47.3764 35.9788C45.7879 34.2728 44.4976 32.3243 43.1362 30.4404C42.2087 29.185 41.4357 27.8272 40.6044 26.5103C40.2731 26.367 39.822 26.8758 39.9513 27.2176ZM51.5046 26.8663C51.4952 30.7681 51.4841 34.6698 51.4762 38.5715C51.4762 38.959 51.3847 39.337 51.3169 39.7167C51.6639 40.079 52.0189 40.435 52.3912 40.772C52.4874 40.8587 52.6025 40.887 52.7366 40.8587C52.7003 40.0427 52.7729 39.2252 52.7066 38.4108C52.642 38.2092 52.612 38.0013 52.6152 37.7902C52.6088 36.2135 52.5615 34.6367 52.5694 33.0584C52.4148 30.9902 52.4606 28.9093 52.4227 26.8364C52.123 26.7907 51.6576 26.4426 51.5046 26.8663ZM36.1355 33.6743C34.6637 37.8217 34.1195 42.2275 33.9065 46.6002C33.8071 47.235 33.8908 47.8714 33.9365 48.5046C33.9554 50.6768 34.3072 52.8364 34.8151 54.9455C35.2064 56.327 35.738 57.7037 36.656 58.8268C36.8311 59.0001 36.8122 59.2489 36.8311 59.4758C39.038 58.841 41.2496 58.1967 43.5132 57.7856C45.9488 57.2847 48.4254 57.0011 50.902 56.8169C50.9651 51.9921 51.0061 47.1641 50.9856 42.3378C50.6654 41.8211 50.137 41.4746 49.7032 41.0619C48.9775 40.3704 48.2204 39.7056 47.591 38.9244C46.105 37.2515 44.6301 35.5629 43.316 33.7499C41.9452 31.6864 40.4798 29.6702 39.4324 27.4161C37.9006 29.2386 36.8406 31.4123 36.1355 33.6743ZM53.5506 28.1848C53.5995 29.0369 53.8629 29.8529 54.0554 30.6783C55.24 35.7472 56.6235 40.7689 58.029 45.7811C58.111 46.0457 58.2877 46.2694 58.5038 46.4395C59.1442 46.9578 59.7642 47.4996 60.3762 48.051C60.4488 48.073 60.5955 48.1171 60.6681 48.1407C59.4976 45.4708 58.5748 42.6985 57.5652 39.9655C56.2969 36.3347 55.1154 32.6725 54.0459 28.9771C53.9686 28.6652 53.7683 28.4116 53.5506 28.1848ZM52.937 28.9408C52.9701 30.368 52.8928 31.7998 53.0332 33.2222C52.9717 35.8984 53.2035 38.5699 53.1988 41.2446C53.1799 41.5281 53.4212 41.7171 53.5884 41.9125C54.598 42.9552 55.6738 43.9334 56.7639 44.8911C57.0021 45.1085 57.2166 45.3653 57.5242 45.4881C56.9547 44.1146 56.6392 42.656 56.2307 41.2304C55.0744 36.9963 54.0459 32.7292 53.0395 28.4573C52.9559 28.6069 52.9228 28.7691 52.937 28.9408ZM54.4087 28.5029C55.2763 31.3414 56.1976 34.1657 57.0967 36.9948C58.3492 40.6933 59.6743 44.3666 61.1097 47.999C61.2927 48.4085 61.3716 48.9047 61.7581 49.1867C62.7913 50.0609 63.8356 50.9304 64.9572 51.6912C64.0896 48.922 63.6069 46.0379 63.4964 43.1395C63.4412 40.1309 63.8261 37.1397 64.2347 34.1657C64.3688 32.8426 64.7363 31.5084 64.4208 30.1821C61.0766 29.6576 57.7513 29.0322 54.4087 28.5029ZM74.8131 34.3689C74.8273 34.5249 74.8431 34.6792 74.8588 34.8368C75.015 34.8478 75.1712 34.8604 75.3289 34.8746C75.3337 34.7013 75.34 34.5296 75.3479 34.3579C75.168 34.361 74.9913 34.3642 74.8131 34.3689ZM70.7937 35.7236C70.7606 37.6721 70.789 39.6237 70.7953 41.5738C71.2118 41.4383 71.6345 41.2588 72.0841 41.2966C72.9407 41.3533 73.2041 42.6245 74.1269 42.4449C74.6475 42.4354 74.8462 41.8337 74.8084 41.3974C74.7957 39.6836 74.7563 37.9698 74.8068 36.256C74.343 36.4135 73.8067 36.6325 73.3398 36.3647C72.7845 36.0055 72.5258 35.3566 72.0352 34.9265C71.5904 35.1282 71.1061 35.3392 70.7937 35.7236ZM28.7199 37.1712C28.8997 37.2531 29.0779 37.3366 29.2562 37.4201C29.1773 39.5907 29.2909 41.7628 29.272 43.935C29.3146 44.647 29.425 45.3542 29.3761 46.071C29.5543 46.0867 29.7326 46.0899 29.9108 46.0804C29.8335 45.9749 29.7231 45.9024 29.5796 45.8599C29.3919 43.2262 29.4518 40.583 29.3903 37.9446C29.3461 37.4988 29.5733 37.0845 29.5275 36.6419C29.1048 36.4875 28.8571 36.8073 28.7199 37.1712ZM26.6912 36.7317C27.48 36.9459 27.5431 37.9162 28.1394 38.3699C28.1236 37.7178 27.3664 37.3539 27.3569 36.7096C27.1345 36.7096 26.9121 36.7112 26.6912 36.7317ZM26.2622 38.0958C26.2306 39.9199 26.2985 41.7439 26.2243 43.5664C26.4436 43.5759 26.6518 43.5223 26.8032 43.3538C27.4405 43.6089 27.8191 44.2044 28.2119 44.7289C28.4028 44.5525 28.6457 44.3682 28.6284 44.0783C28.6631 42.2748 28.6315 40.468 28.6221 38.6644C27.7276 38.8235 27.2197 37.8958 27.0146 37.1696C26.696 37.4027 26.2275 37.6343 26.2622 38.0958ZM51.4636 40.5972C51.4731 41.0823 51.3926 41.5896 51.5299 42.0621C51.8659 42.5977 52.418 42.9442 52.8486 43.3979C52.9133 42.993 52.7855 42.5961 52.7792 42.1929C52.7555 41.9928 52.806 41.7534 52.6325 41.6053C52.276 41.2351 51.9116 40.8571 51.4636 40.5972ZM75.1207 42.2259C75.1128 44.4107 75.1381 46.5955 75.1381 48.7787C75.2201 48.7661 75.3841 48.7393 75.4646 48.7251C75.4804 48.0163 75.4472 47.3075 75.3636 46.6049C75.3053 45.1447 75.3337 43.6846 75.3242 42.2244C75.2737 42.2244 75.1728 42.2259 75.1207 42.2259ZM53.2083 42.3267C53.2051 42.7788 53.2099 43.234 53.2209 43.6877C54.7905 45.0093 56.3379 46.3702 58.0132 47.5595C57.9312 47.0822 57.8239 46.5703 57.48 46.2064C57.1472 45.8599 56.7796 45.548 56.4152 45.2361C55.3205 44.2957 54.3504 43.2057 53.2083 42.3267ZM51.4715 42.867C51.5172 43.4372 51.3374 43.9901 51.3516 44.5588C51.3832 50.1507 51.3374 55.7442 51.3421 61.3376C51.9652 61.2809 52.5804 61.1455 53.2099 61.188C52.9937 58.696 53.1704 56.1821 52.937 53.6917C52.9338 51.5935 52.9275 49.4938 52.877 47.3973C52.6798 46.2332 52.825 45.0487 52.7366 43.8783C52.4464 43.5239 52.0788 43.2435 51.7775 42.9017C51.7018 42.8922 51.5488 42.8765 51.4715 42.867ZM53.3534 44.4154C53.3218 46.7719 53.3755 49.1284 53.4165 51.4833C53.3944 53.2664 53.5664 55.0416 53.5317 56.8247C55.7306 56.8468 57.9296 56.9885 60.1049 57.3193C60.5466 57.3902 61.0056 57.3934 61.4252 57.5682C61.4379 57.4249 61.4142 57.2863 61.3574 57.1571C60.198 54.4399 59.3162 51.6172 58.3997 48.8118C58.305 48.503 58.0164 48.314 57.7971 48.0966C56.3364 46.8444 54.7857 45.7008 53.3534 44.4154ZM28.9517 45.6614C28.9675 46.6601 28.9391 47.6587 28.9375 48.6574C28.9754 49.4403 28.6883 50.2168 28.9675 50.9824C29.0322 50.9745 29.1647 50.9572 29.2294 50.9477C29.2956 50.6138 29.4045 50.272 29.313 49.9333C29.1773 48.8307 29.242 47.7154 29.1978 46.6097C29.1174 46.0316 29.0858 45.4488 29.0701 44.8675C28.8981 45.0959 28.9659 45.3952 28.9517 45.6614ZM58.4265 47.1106C58.4675 47.6414 58.6947 48.1849 59.1521 48.4904C59.873 49.0197 60.6002 49.5411 61.3243 50.0688C61.2896 49.6387 61.0577 49.2449 60.7154 48.9866C59.9345 48.3817 59.1994 47.7233 58.4265 47.1106ZM78.2835 47.9312C78.3024 48.24 78.3229 48.5487 78.3482 48.8575C78.64 48.889 78.9318 48.9378 79.2174 49.015C79.4398 48.6842 79.3956 48.2841 79.3294 47.9139C78.9807 47.9249 78.6321 47.9297 78.2835 47.9312ZM71.3664 48.1234C71.3963 48.3991 71.4373 48.6747 71.4847 48.9488C71.6566 48.8921 71.8995 48.9583 72.0257 48.8055C72.0478 48.5613 72.0431 48.3172 72.0462 48.0746C71.8175 48.0888 71.5919 48.1077 71.3664 48.1234ZM73.5843 48.0951C73.5748 48.366 73.5622 48.6385 73.5511 48.911C73.8209 48.9094 74.0906 48.9047 74.3619 48.9063C74.3714 48.6212 74.3825 48.3376 74.3967 48.0541C74.1237 48.0667 73.854 48.0809 73.5843 48.0951ZM76.1003 48.1045C76.0798 48.3754 76.023 48.6432 75.881 48.8811C76.2281 48.9252 76.6114 48.9551 76.9032 48.7204C76.8953 48.4526 76.8906 48.1864 76.889 47.9202C76.624 47.9769 76.3622 48.0384 76.1003 48.1045ZM59.0038 49.1378C60.0103 51.8078 60.7233 54.5895 61.9379 57.1791C62.0294 57.343 62.0736 57.5903 62.2976 57.6296C63.3923 57.9022 64.5107 58.0707 65.5976 58.3763C65.5503 57.9557 65.2474 57.6422 65.055 57.2847C64.1937 55.8103 63.3892 54.3044 62.632 52.7749C62.3181 52.1417 62.1698 51.384 61.5956 50.9194C61.0356 50.4689 60.4377 50.0688 59.8604 49.6435C59.5891 49.4513 59.3398 49.2087 59.0038 49.1378ZM70.5603 49.3458C70.5571 49.5663 70.5524 49.7884 70.5492 50.0105C73.7941 49.9223 77.0405 49.9837 80.2853 49.9506C80.7538 49.9979 80.7648 49.4434 80.4935 49.1961C79.211 49.2465 77.9254 49.2166 76.6414 49.2292C74.6207 49.4056 72.5873 49.3269 70.5603 49.3458ZM81.899 49.6702C81.8801 50.7004 81.9984 51.7463 81.6955 52.7497C81.5047 53.2995 81.6545 53.8823 81.593 54.4478C81.4636 55.2968 81.3658 56.1506 81.2381 57.0012C80.6497 60.0649 80.0266 63.1806 78.5548 65.9639C77.8576 67.4178 77.0247 68.8056 76.0467 70.0893C76.277 70.3776 76.706 70.9557 77.0689 70.502C78.8277 68.3677 79.9177 65.7718 80.7759 63.1664C81.4211 60.9722 82.1577 58.789 82.4937 56.5207C82.6373 55.5662 82.9417 54.6447 83.1058 53.6933C83.4181 52.3103 83.5159 50.8847 83.863 49.5096C83.2052 49.5222 82.5442 49.5285 81.899 49.6702ZM26.5288 50.1617C26.5303 50.3838 26.5367 50.6059 26.5414 50.828C26.696 50.8123 26.8506 50.7965 27.0052 50.7808C27.0083 50.5728 27.0146 50.3633 27.0225 50.157C26.8569 50.1586 26.6928 50.1601 26.5288 50.1617ZM31.3495 51.1793C31.4978 50.9367 31.7849 50.7193 31.7565 50.4059C31.758 50.1601 31.5056 50.0357 31.329 49.927C31.3069 50.3428 31.2059 50.7744 31.3495 51.1793ZM61.9868 50.0814C62.0452 50.5602 62.4537 50.8627 62.8024 51.1462C63.4696 51.6345 64.1495 52.1086 64.812 52.6064C64.9919 52.7545 65.2111 52.8505 65.4493 52.8537C64.9524 52.3591 64.3703 51.9653 63.834 51.5179C63.2267 51.0296 62.6509 50.4941 61.9868 50.0814ZM18.4506 50.2483C19.1747 50.9083 20.0612 51.3478 20.8689 51.8928C23.8471 53.8429 26.7985 55.8339 29.7499 57.8218C30.0433 58.0171 30.3052 58.2802 30.6538 58.3794C30.6854 57.9195 30.6933 57.458 30.638 57.0012C29.4581 56.4735 28.3681 55.7709 27.2418 55.1393C24.3298 53.479 21.421 51.8062 18.4506 50.2483ZM28.122 50.2326C28.1441 50.5319 28.1409 50.9131 28.4895 51.0233C28.4454 50.7193 28.5337 50.272 28.122 50.2326ZM29.7278 50.2877C29.7168 50.4673 29.7058 50.6469 29.6947 50.8264C29.8619 50.817 30.0307 50.8091 30.1979 50.7997C30.1837 50.6453 30.1695 50.4909 30.1553 50.3381C30.0134 50.3208 29.8698 50.3035 29.7278 50.2877ZM71.3758 50.4783C71.3995 52.5119 71.4295 54.547 71.3679 56.5806C71.9958 57.0957 72.663 57.5855 73.3792 57.9715C73.4502 56.1537 73.3839 54.3328 73.4092 52.5135C74.9093 51.8991 76.6177 51.8456 78.1463 52.3843C78.405 53.5357 78.263 54.736 78.4381 55.9032C78.7615 55.719 79.1164 55.5819 79.413 55.3519C79.4114 53.7122 79.4666 52.0598 79.2757 50.4295C76.643 50.4626 74.0054 50.3728 71.3758 50.4783ZM26.0713 51.5668C26.0776 51.7211 26.0902 52.0283 26.0965 52.1811C28.2482 52.2488 30.3998 52.1622 32.5515 52.1779C32.5752 51.9354 32.5972 51.6928 32.6146 51.4502C30.4298 51.4518 28.2545 51.4502 26.0713 51.5668ZM22.9574 51.7621C22.7681 52.2236 23.3155 52.4174 23.6231 52.6001C24.1878 52.8364 24.6705 53.2837 25.2952 53.3562C25.322 52.8663 25.4529 52.3953 25.5918 51.9275C25.5571 51.8787 25.4892 51.781 25.4545 51.7322C24.6248 51.6802 23.7824 51.6455 22.9574 51.7621ZM62.6209 51.6361C62.9412 52.2646 63.2251 52.912 63.5311 53.5483C64.5044 55.2732 65.3499 57.1051 66.6277 58.6315C67.4164 58.8866 68.1973 59.1843 69.0065 59.3749C68.855 58.9118 68.5017 58.5622 68.2367 58.1636C67.3817 57.0437 66.8659 55.7189 66.1986 54.4887C65.7664 53.5357 64.73 53.1294 63.9318 52.5465C63.457 52.2961 63.1273 51.8267 62.6209 51.6361ZM26.4215 52.6584C26.4515 53.1624 26.4499 53.6665 26.4483 54.1721C26.8458 54.41 27.2418 54.651 27.6661 54.84C27.6693 54.599 27.6756 54.3596 27.6756 54.1186C28.6725 53.5168 29.9787 53.4554 31.0056 54.0209C30.9977 54.3848 30.9867 54.7486 31.0119 55.1125C31.1791 56.2167 31.1002 57.3382 31.1712 58.4503C31.6208 58.5165 32.0073 58.7764 32.4474 58.8756C32.4001 58.1164 32.4174 57.354 32.3685 56.5963C32.1808 55.6859 32.3054 54.7486 32.1587 53.835C32.1003 53.4475 32.0925 53.0553 32.0893 52.6662C30.2011 52.5922 28.3113 52.6631 26.4215 52.6584ZM22.9448 53.95C23.0316 57.9226 23.9686 61.8307 25.1848 65.6032C26.0587 67.9172 27.4642 70.0185 29.2341 71.7449C29.6095 72.0977 29.9518 72.5057 30.4204 72.742C30.2468 72.323 29.884 72.03 29.6237 71.6693C28.5227 70.2091 27.4453 68.7142 26.6487 67.0618C25.6233 64.7841 24.8756 62.3394 24.7952 59.8302C24.6327 58.8929 24.721 57.9352 24.7131 56.9901C24.8377 56.3616 24.8425 55.7205 24.8283 55.0842C24.1878 54.725 23.6136 54.2588 22.9448 53.95ZM70.8726 59.3182C70.9752 59.8885 71.2559 60.4004 71.5273 60.906C72.0084 60.8918 72.3933 60.55 72.8713 60.517C73.4076 60.9391 73.9818 61.3329 74.6175 61.5944C73.8714 61.9362 73.0463 62.048 72.2545 62.2402C72.3176 62.8466 72.622 63.3838 72.8523 63.9398C73.6 65.4394 74.2089 67.002 74.9251 68.5157C75.187 68.993 75.4614 69.5349 75.982 69.7712C76.7676 68.5772 77.5311 67.3643 78.1794 66.09C78.4775 65.3984 78.7709 64.7038 79.0912 64.0233C79.6969 62.7238 80.0092 61.3187 80.3878 59.9436C80.7554 58.2503 81.1418 56.5333 81.1418 54.7959C78.0705 56.9807 74.4913 58.3385 70.8726 59.3182ZM67.7146 55.1141C67.8518 55.3267 67.9922 55.541 68.0963 55.7741C70.1202 60.3988 72.2403 64.9795 74.2768 69.5979C74.7027 70.6155 74.3241 71.7401 74.5702 72.7845C75.2643 74.4305 75.8921 76.105 76.6177 77.7353C77.0941 77.6171 77.58 77.5463 78.0737 77.5447C78.8419 77.4486 79.6038 77.2706 80.3799 77.2438C80.3705 77.0548 80.4052 76.8453 80.2664 76.6941C79.2316 75.0464 78.2677 73.3531 77.2108 71.7197C76.3984 70.7021 75.1412 70.0342 74.6317 68.7819C72.6788 64.5195 70.7512 60.246 68.814 55.9757C68.5727 55.5646 68.1988 55.2039 67.7146 55.1141ZM26.5793 56.39C26.5729 56.716 26.5666 57.0437 26.5619 57.3713C27.0288 57.3792 27.4689 57.5462 27.928 57.6044C27.8601 56.9397 27.2165 56.4467 26.5793 56.39ZM25.1469 57.0405C25.199 58.129 25.1059 59.2253 25.2731 60.3075C25.2637 61.4432 25.5949 62.5395 25.882 63.6264C26.9752 67.2493 29.0306 70.5367 31.6303 73.2712C32.6477 74.3014 33.7283 75.3898 35.159 75.7978C36.2885 75.9679 37.1924 75.1394 37.9401 74.4179C38.6594 73.8241 39.5617 73.3216 40.5287 73.4224C42.1976 73.3736 43.4249 74.6826 44.8604 75.3142C45.8731 75.697 47.113 75.6592 48.0169 75.0149C48.9413 74.3723 49.7379 73.4917 50.8468 73.1625C51.3579 73.0822 51.8785 73.1184 52.3896 73.1688C52.7902 73.4146 53.243 73.5626 53.6326 73.8272C54.3756 74.2715 54.9845 74.9078 55.7432 75.3268C56.3679 75.5789 57.0494 75.7442 57.7277 75.645C58.5558 75.5017 59.3051 75.0323 59.8572 74.4069C60.851 73.4083 62.2581 72.534 63.722 72.9231C64.9177 73.2208 65.5629 74.4179 66.6829 74.859C67.6246 75.278 68.7509 75.3646 69.7053 74.9362C71.2212 74.2242 72.7072 73.3783 73.8824 72.167C73.8714 71.2203 74.0764 70.2012 73.6016 69.3317C72.7451 67.4588 71.9279 65.5686 71.0367 63.7114C70.8884 63.4011 70.7685 63.0782 70.6833 62.7458C69.9545 62.7364 69.3125 63.2641 68.5916 63.1948C68.1326 62.812 67.4874 62.6135 67.1782 62.078C68.0632 61.8259 68.9465 61.5723 69.8425 61.366C69.8425 60.8288 69.557 60.3657 69.3362 59.8948C68.7572 59.8459 68.213 60.0712 67.6562 60.1846C65.1039 60.7485 62.52 61.1911 59.9219 61.4542C58.0274 61.5456 56.1471 61.8291 54.2462 61.8196C52.1435 61.8196 50.0376 61.8763 47.9364 61.7708C47.1556 61.6133 46.3542 61.6857 45.5718 61.555C41.7402 61.2352 37.9275 60.6162 34.1889 59.7089C32.6572 59.4096 31.1271 59.0678 29.6584 58.5307C28.783 58.2282 27.8665 58.066 26.9563 57.9069C26.2464 57.8502 25.8836 57.061 25.1469 57.0405ZM71.3348 57.7242C71.4705 57.9762 71.5099 58.255 71.5115 58.5385C71.9327 58.5228 72.3318 58.3857 72.7056 58.1951C72.3586 57.9415 71.9737 57.7478 71.5888 57.5666C71.5241 57.606 71.3979 57.6848 71.3348 57.7242ZM71.6219 61.1959C71.6282 61.5534 71.9264 61.7645 72.1772 61.9709C72.5842 61.7519 73.0385 61.6479 73.4912 61.5708C73.4581 61.4888 73.3918 61.3234 73.3587 61.2415C72.8239 60.8351 72.2087 61.1392 71.6219 61.1959ZM68.1436 62.3505C68.8077 62.9695 69.7305 62.4355 70.4688 62.2686C70.4294 62.0559 70.33 61.7283 70.0366 61.8055C69.3914 61.8716 68.6957 61.9992 68.1436 62.3505ZM60.0418 75.6986C59.3209 76.4547 58.3271 77.0233 57.2497 76.9162C55.8127 76.9004 54.7794 75.8057 53.691 75.0291C52.7035 74.2872 51.2822 73.9832 50.1748 74.6448C49.0327 75.1914 48.2898 76.3538 47.0483 76.7146C46.512 76.8453 45.9488 76.8217 45.4046 76.7602C43.6095 76.4216 42.3822 74.7283 40.5287 74.5644C39.5507 74.4305 38.6484 74.9252 37.8754 75.4654C37.2287 75.9301 36.7176 76.6059 35.9414 76.8705C35.2852 77.1588 34.5375 77.1399 33.8482 77.0091C32.0546 76.6232 31.0419 74.681 29.1757 74.4873C27.6961 74.2935 26.4609 75.3268 25.4892 76.305C24.7857 77.1383 23.6168 77.603 22.5394 77.3163C21.2948 76.9855 20.2205 76.2278 19.2252 75.4387C17.9805 74.5077 16.2185 74.0068 14.7625 74.7409C13.7293 75.1473 12.9784 76.0199 11.9894 76.5019C10.7495 76.9414 9.31558 76.7366 8.20505 76.0498C7.34219 75.5521 6.45881 75.0921 5.56755 74.6526C5.93667 76.2877 6.36259 77.9259 7.02827 79.468C7.85644 80.1532 9.01429 80.3847 10.0743 80.3595C10.7526 80.3548 11.4972 80.495 12.1014 80.1044C13.1251 79.4428 14.0416 78.5512 15.2531 78.233C16.7896 77.7542 18.438 78.3181 19.7047 79.2144C20.8121 80.0319 22.1261 80.5753 23.4859 80.7833C24.7746 80.7203 25.606 79.6019 26.7039 79.0899C28.4249 78.3732 30.5734 78.4173 32.0956 79.5735C32.6099 79.939 33.1336 80.3233 33.7551 80.4855C35.0029 80.925 36.4289 80.3942 37.3044 79.457C37.8896 78.8804 38.6405 78.4992 39.4166 78.2472C40.6533 77.9164 41.9973 78.3323 42.9737 79.1214C43.7988 79.7641 44.6932 80.3942 45.7564 80.5438C46.9489 80.7013 48.0579 80.0051 48.8892 79.2175C49.7189 78.3307 50.9935 77.9243 52.1892 78.0708C53.4938 78.3087 54.4955 79.2333 55.606 79.8807C56.5619 80.2839 57.6662 80.3312 58.6647 80.076C60.0876 79.7106 60.9709 78.2551 62.4585 78.0661C63.2598 77.992 64.1385 77.9432 64.853 78.3827C66.0409 78.9671 66.9258 80.1311 68.2998 80.3154C69.7432 80.6572 71.0004 79.7169 72.1425 78.986C73.3019 78.3433 74.6853 77.792 76.023 78.1574C76.9679 78.3827 77.6446 79.1262 78.4507 79.6129C79.1306 80.0618 79.9872 79.9846 80.7617 79.9736C82.2839 79.9138 83.3392 78.6788 84.6264 78.0393C85.3884 77.6108 86.3459 77.5494 87.1519 77.8896C88.4533 78.3921 89.6112 79.1845 90.8732 79.7736C91.2092 79.9484 91.6004 79.8744 91.9616 79.8382C92.5847 79.7373 93.2157 79.7247 93.8451 79.709C94.5092 77.8865 95.2632 76.0325 95.3784 74.0793C95.1086 74.3912 94.872 74.7424 94.5076 74.9535C93.3513 75.7332 92.0152 76.6106 90.5482 76.2719C89.1995 75.8104 88.2861 74.503 86.8506 74.2337C85.9468 73.9722 85.0003 74.3234 84.2384 74.8086C83.7163 75.1205 83.3109 75.5899 82.7856 75.897C82.0725 76.253 81.2617 76.3444 80.4746 76.3271C80.7743 76.7587 81.0661 77.1966 81.3359 77.6487C79.8136 77.7384 78.3056 77.9716 76.796 78.17C76.5168 78.263 76.3259 77.9999 76.1145 77.8755C75.5829 76.7067 75.1002 75.5174 74.6096 74.3313C72.887 74.5125 71.6329 75.9144 69.9798 76.3097C68.4418 76.724 66.746 76.179 65.615 75.0906C64.9177 74.3912 63.935 73.884 62.927 73.9911C61.7691 74.147 60.8763 74.9504 60.0418 75.6986ZM58.8982 83.543C58.0274 84.4172 56.6124 84.5858 55.5019 84.1085C54.2021 83.5855 53.4023 82.2513 52.0204 81.8827C50.779 81.5126 49.5722 82.3049 48.7188 83.135C47.8702 83.984 46.5972 84.5401 45.3967 84.192C43.9281 83.8533 42.9233 82.5585 41.4736 82.1773C40.7132 82.0418 39.8882 82.0907 39.2036 82.4766C38.4354 82.935 37.8943 83.6879 37.1009 84.1132C36.38 84.6062 35.4509 84.5921 34.6243 84.4393C32.9585 84.0187 32.0325 82.2277 30.291 81.9946C29.1647 81.8056 28.1646 82.5254 27.4358 83.302C26.7149 84.0313 25.871 84.9039 24.751 84.8173C23.4007 84.8126 22.4369 83.7178 21.4399 82.9586C20.3641 82.0513 18.8276 81.6181 17.4726 82.0985C16.2785 82.5144 15.5323 83.6485 14.3556 84.0927C12.8554 84.4865 11.2906 84.329 9.75885 84.4172C9.81721 84.6015 9.88347 84.7921 10.0112 84.9449C10.6201 85.7986 11.27 86.624 11.9799 87.3959C12.1014 87.5881 12.3269 87.5676 12.5068 87.4809C13.3034 87.1486 14.0968 86.8115 14.8966 86.487C16.6634 85.7924 18.6904 85.4789 20.5218 86.1121C22.1024 86.6823 23.2776 88.2969 25.0775 88.2244C25.6817 88.2937 26.2496 88.0008 26.6581 87.5755C27.8523 86.3484 29.731 85.6994 31.4015 86.2176C32.7723 86.5736 33.6825 87.8716 35.0912 88.1409C35.8358 88.3457 36.5772 87.9645 37.175 87.5518C38.0963 86.9391 38.743 85.8601 39.9009 85.6632C41.024 85.4379 42.3254 85.6726 43.1331 86.5374C43.7341 87.1817 44.5212 87.6022 45.3226 87.9456C46.0514 88.2544 46.8937 88.0716 47.5499 87.6715C48.61 87.0808 49.2394 85.8522 50.4714 85.5592C51.6403 85.2395 52.8707 85.7152 53.7714 86.4602C54.6296 87.1439 55.6139 87.8291 56.767 87.7661C58.1678 87.8275 59.2625 86.8398 60.2611 85.9987C61.0293 85.3261 62.1398 85.3702 63.0831 85.534C64.2978 85.9451 65.0849 87.0509 66.2112 87.6211C66.7555 87.8984 67.3927 87.9976 67.9922 87.8574C69.5381 87.5109 70.5555 86.1058 72.0699 85.6837C72.947 85.4694 73.9439 85.3513 74.7563 85.8302C75.5861 86.3893 76.2786 87.221 77.2881 87.4668C78.4838 87.7613 79.7837 87.366 80.6891 86.5516C81.2917 86.0255 82.0789 85.8081 82.8171 85.545C83.2698 85.3923 83.6752 85.1245 84.1406 85.0063C84.9987 84.811 85.8837 84.8157 86.7513 84.6913C87.3412 84.6299 87.9785 84.57 88.5259 84.852C89.1427 85.1386 89.7595 85.4253 90.3684 85.7309C90.8542 85.0961 91.3464 84.4566 91.736 83.7588C91.7297 83.6958 91.7155 83.5682 91.7076 83.5052C90.2722 84.4251 88.4265 84.088 86.969 83.4028C85.9436 82.7853 85.0539 81.7126 83.7525 81.7615C82.5742 81.6732 81.664 82.5396 80.8279 83.2374C79.6054 84.1179 77.9901 83.8754 76.6414 83.4611C75.3826 83.0704 74.4282 81.8276 73.0164 81.9489C71.532 81.8465 70.5571 83.1697 69.2384 83.595C67.7319 84.2156 65.8547 83.984 64.6543 82.8468C63.9571 82.1962 63.151 81.4827 62.1288 81.5346C60.7879 81.648 59.8257 82.6814 58.8982 83.543ZM86.2007 89.5444C85.0776 90.3872 83.9308 91.3795 82.4716 91.5213C81.0377 91.6378 79.5518 91.4677 78.2362 90.8629C77.4049 90.5037 76.7218 89.8169 75.7959 89.6846C75.2453 89.6326 74.6743 89.6263 74.1427 89.8012C72.8823 90.1777 71.9469 91.233 70.6502 91.5229C69.3015 91.9497 67.7808 91.5938 66.6687 90.7479C66.2112 90.425 65.8752 89.9524 65.3815 89.6815C64.6921 89.2656 63.8214 89.0672 63.0532 89.379C61.5846 89.8469 60.7627 91.2897 59.4234 91.9702C58.3098 92.4349 56.9926 92.1451 56.0587 91.4189C54.9908 90.6203 53.9386 89.5665 52.511 89.5555C51.238 89.6153 50.2221 90.4943 49.3262 91.3118C48.4617 92.0962 47.1919 92.2411 46.0971 91.9482C45.0465 91.6142 44.2594 90.7872 43.2687 90.3304C42.256 89.7886 40.9404 89.5759 39.9245 90.2186C38.937 90.6786 38.3266 91.6631 37.3312 92.1057C36.2932 92.6082 35.0029 92.4317 34.0659 91.7843C32.9427 91.085 32.0025 89.9209 30.6033 89.8028C29.2546 89.6122 28.0794 90.499 27.2039 91.4173C26.2843 92.4239 24.8519 93.0004 23.4922 92.7436C22.2886 92.5877 21.3547 91.7402 20.3152 91.1937C18.7314 90.3966 16.9236 89.6972 15.1317 90.1808C15.2279 90.5337 15.5686 90.7148 15.8289 90.9369C18.4538 92.9468 21.3453 94.5834 24.3093 96.0358C24.5333 96.1366 24.7778 96.2799 25.0286 96.1744C25.8 95.9098 26.5682 95.5742 27.174 95.0119C28.8082 93.4997 31.5719 93.3548 33.315 94.7662C34.1037 95.3994 35.0754 95.9208 36.1181 95.8546C36.7428 95.8719 37.3186 95.5648 37.8328 95.2434C38.6768 94.626 39.3361 93.7076 40.3914 93.4288C41.6029 93.117 42.9816 93.3847 43.9297 94.2243C44.7973 94.9914 45.8274 95.6483 46.9931 95.8168C47.7771 95.8893 48.5311 95.5349 49.1432 95.0765C49.7016 94.6811 50.0975 94.1046 50.6559 93.7092C51.593 93.1563 52.7997 93.0571 53.8014 93.4934C54.964 93.9329 55.8048 94.9426 56.9847 95.3427C58.0242 95.5632 59.1632 95.5002 60.1065 94.9804C60.9899 94.5598 61.6019 93.7265 62.5058 93.3406C63.4964 92.9153 64.6527 93.0996 65.5945 93.5659C66.3516 94.0573 66.9416 94.774 67.7477 95.1978C69.0901 95.9035 70.7827 95.579 71.9185 94.626C72.9833 93.6793 74.425 93.0949 75.8621 93.2099C76.9979 93.328 77.8245 94.1786 78.681 94.8402C78.8135 94.9757 79.006 94.8623 79.1416 94.7945C81.7003 93.3784 84.1848 91.8048 86.4105 89.902C86.7718 89.5822 87.1756 89.2798 87.3791 88.8293C86.9122 88.9222 86.5793 89.2861 86.2007 89.5444ZM61.2265 96.721C60.3194 97.2061 59.7894 98.178 58.8445 98.6033C57.9312 99.0837 56.8017 99.079 55.8647 98.6663C54.6264 98.1701 53.8535 96.8974 52.5315 96.5682C51.3611 96.187 50.0549 96.6343 49.2173 97.4944C48.2787 98.5072 46.8148 99.1656 45.4298 98.7971C44.0653 98.4489 43.0526 97.3715 41.7307 96.9194C40.8521 96.628 39.8283 96.6186 39.0064 97.0848C38.0347 97.5889 37.3974 98.5954 36.3342 98.9467C35.0518 99.4523 33.5973 99.0207 32.5357 98.2237C31.8416 97.6992 31.2296 97.0234 30.3715 96.7682C29.313 96.3618 28.1488 96.7477 27.2386 97.329C30.6018 98.953 34.1116 100.251 37.5457 101.716C38.3518 100.763 39.5791 100.109 40.8489 100.182C42.0509 100.284 42.9927 101.125 43.9092 101.826C44.7815 102.546 45.9851 102.837 47.0877 102.571C47.8686 102.288 48.4664 101.684 49.1116 101.185C49.883 100.53 50.8437 99.9044 51.9085 100.093C53.6784 100.314 54.8204 101.946 56.5462 102.292C57.2639 102.414 58.04 102.409 58.7057 102.077C60.0418 101.654 60.8936 100.35 62.2723 100.027C63.356 99.7154 64.4066 100.334 65.2868 100.898C66.44 100.552 67.5142 99.98 68.6405 99.5516C70.8521 98.6096 73.13 97.7889 75.2453 96.6469C74.5355 96.3713 73.7294 96.4327 73.0306 96.7115C72.0857 97.0644 71.3553 97.8189 70.3915 98.1323C69.0223 98.7088 67.3991 98.6049 66.115 97.8661C65.3689 97.3495 64.8089 96.5414 63.9034 96.2783C63.0011 95.935 62.0026 96.2059 61.2265 96.721ZM49.2 105.216C48.3418 106.038 47.0341 106.396 45.892 106.04C45.9867 106.178 46.0908 106.314 46.2343 106.408C47.0909 107.021 47.9001 107.694 48.7315 108.34C49.5975 107.921 50.4383 107.413 51.3863 107.194C52.0394 107.038 52.694 107.226 53.3313 107.361C54.0286 106.96 54.6406 106.419 55.3173 105.981C55.4767 105.863 55.8537 105.657 55.576 105.447C54.9387 104.912 54.3156 104.332 53.5553 103.973C52.9086 103.612 52.1167 103.605 51.41 103.753C50.5645 104.041 49.842 104.609 49.2 105.216Z" fill="#2F80ED"/>
</g>
<defs>
<filter id="filter0_d" x="0" y="0" width="101" height="119" filterUnits="userSpaceOnUse" color-interpolation-filters="sRGB">
<feFlood flood-opacity="0" result="BackgroundImageFix"/>
<feColorMatrix in="SourceAlpha" type="matrix" values="0 0 0 0 0 0 0 0 0 0 0 0 0 0 0 0 0 0 127 0" result="hardAlpha"/>
<feOffset dy="4"/>
<feGaussianBlur stdDeviation="2"/>
<feComposite in2="hardAlpha" operator="out"/>
<feColorMatrix type="matrix" values="0 0 0 0 0 0 0 0 0 0 0 0 0 0 0 0 0 0 0.25 0"/>
<feBlend mode="normal" in2="BackgroundImageFix" result="effect1_dropShadow"/>
<feBlend mode="normal" in="SourceGraphic" in2="effect1_dropShadow" result="shape"/>
</filter>
</defs>
</svg>
