<svg width="96" height="193" viewBox="0 0 96 193" fill="none" xmlns="http://www.w3.org/2000/svg">
<g filter="url(#filter0_dd)">
<path fill-rule="evenodd" clip-rule="evenodd" d="M13.3981 162.206H12.5437V156.905L9.98058 162.206H9.411L6.8479 156.905C6.8479 157.17 6.8479 157.701 6.8479 158.496C6.8479 159.291 6.8479 160.351 6.8479 160.881C7.13269 161.676 7.13269 162.206 7.13269 162.206H5.99353V155.845H7.41748L9.69579 161.146L12.2589 155.845H13.3981V162.206ZM4.85437 130.136H14.5372C17.6699 130.136 20.233 131.196 22.2265 133.052C24.2201 134.907 25.0744 137.557 25.0744 141.003C25.0744 142.593 25.0744 143.918 24.5049 145.244C24.2201 146.304 23.6505 147.364 22.7961 148.689C21.9417 149.749 20.8026 150.544 19.3786 151.075C17.6699 151.605 15.9612 151.87 13.6828 151.87H4.85437V130.136ZM8.27184 132.787V149.484H13.9676C16.5307 149.484 18.5243 148.689 19.9482 147.364C21.0874 145.774 21.9417 143.653 21.9417 141.003C21.9417 138.617 21.0874 136.497 19.9482 134.907C18.5243 133.582 16.5307 132.787 13.9676 132.787H8.27184ZM48.712 151.87H44.7249L37.89 142.593H31.3398V151.87H28.2071V130.136H39.3139C41.877 130.136 43.8706 130.666 45.2945 131.726C46.7184 132.787 47.5728 134.377 47.5728 136.497C47.5728 138.087 47.0032 139.413 46.1489 140.473C45.2945 141.533 43.5858 142.328 41.5922 142.593L48.712 151.87ZM31.3398 140.208H38.7443C42.4466 140.208 44.1553 139.148 44.1553 136.497C44.1553 135.172 43.8706 134.377 43.0162 133.582C42.1618 133.052 40.7379 132.521 39.3139 132.521H31.3398V140.208ZM50.9903 130.136H54.123V144.713C54.123 146.304 54.6926 147.629 55.5469 148.689C56.6861 149.484 58.11 150.014 60.1036 150.014C62.3819 150.014 63.8058 149.484 64.945 148.424C65.7994 147.364 66.3689 146.039 66.3689 144.183V130.136H69.7864V144.713C69.7864 146.834 68.932 148.689 67.2233 150.279C65.5146 151.87 63.2362 152.665 60.1036 152.665C57.2557 152.665 54.9773 151.87 53.2686 150.544C51.8447 148.954 50.9903 147.364 50.9903 144.979V130.136ZM91.4304 130.136V151.87H88.0129V142.593H83.4563C81.7476 142.593 80.3236 142.858 79.4693 143.388C78.3301 143.918 77.7605 144.448 77.4757 145.244C76.9062 146.039 76.9062 146.834 76.6214 147.629C76.3366 148.424 76.3366 149.219 76.0518 150.014C75.767 150.809 75.1974 151.605 74.9126 151.87H70.9256C71.4951 151.605 72.0647 150.809 72.6343 150.014C72.9191 149.219 73.2039 148.424 73.2039 147.629C73.4887 146.834 73.7735 146.039 73.7735 145.244C74.0583 144.448 74.6278 143.653 75.1974 143.123C75.767 142.593 76.6214 142.063 77.4757 141.798C76.0518 141.533 74.9126 141.003 74.0583 140.208C73.2039 139.413 72.6343 138.087 72.6343 136.497C72.6343 134.642 73.4887 133.052 74.9126 131.726C76.3366 130.666 78.3301 130.136 80.8932 130.136H91.4304ZM88.0129 140.208V132.787H80.6084C78.8997 132.787 77.7605 133.052 77.1909 133.847C76.6214 134.642 76.0518 135.437 76.0518 136.497C76.0518 137.822 76.6214 138.883 77.1909 139.413C78.0453 139.943 79.4693 140.208 81.178 140.208H88.0129ZM60.3884 64.4054H64.3754V90.9097H60.3884V64.4054ZM41.0227 126.16H54.123V127.486H41.0227V126.16ZM41.0227 124.57H54.123V125.63H41.0227V124.57ZM41.0227 122.715H54.123V124.04H41.0227V122.715ZM68.0777 121.655H90.2913V122.185V126.426V127.221H68.6472H54.9773V122.715H68.0777V121.655ZM5.13916 121.655H27.3528V122.715H40.4531V127.221H27.3528H5.13916V126.426V122.185V121.655ZM91.4304 97.0057H65.7994V98.861H91.4304V97.0057ZM80.3236 104.692C79.4693 104.692 78.6149 105.222 78.6149 106.017V109.198H82.3172V106.017C82.3172 105.222 81.4628 104.692 80.3236 104.692ZM69.5016 79.7779H66.6537V91.1748H68.3625V95.4155H66.6537V96.2106H90.2913C90.0065 94.3553 88.2977 93.0301 85.4498 93.0301C77.4757 92.235 69.5016 86.6691 69.5016 79.7779ZM66.6537 99.3911V121.125H90.2913V99.3911H66.6537ZM4 97.0057H29.6311V98.861H4V97.0057ZM15.1068 104.692C15.9612 104.692 16.8155 105.222 16.8155 106.017V109.198H13.1133V106.017C13.1133 105.222 13.9676 104.692 15.1068 104.692ZM25.9288 79.7779H28.7767V91.1748H27.068V95.4155H28.7767V96.2106H5.13916C5.42395 94.3553 7.13269 93.0301 9.98058 93.0301C17.9547 92.235 25.644 86.6691 25.9288 79.7779ZM28.7767 99.3911V121.125H5.13916V99.3911H28.7767ZM46.4337 1.32521L47.288 2.12034V0H48.1424V2.12034L49.2816 1.06017L49.5663 1.32521L48.1424 2.12034H50.4207V2.65043H48.1424L49.2816 3.44556L48.9968 3.7106L48.1424 2.91547V4.77077H47.288V2.91547L46.1489 3.7106H45.8641L47.0032 2.65043H44.7249V2.12034H47.0032L46.1489 1.32521H46.4337ZM58.9644 38.6963H62.6667V60.1648H58.9644V38.6963ZM60.3884 95.1504H64.3754V121.655H60.3884V95.1504ZM29.9159 92.235H65.5146V94.6203H29.9159V92.235ZM29.9159 61.2249H65.5146V63.6103H29.9159V61.2249ZM31.6246 36.0458H63.521V37.9011H31.6246V36.0458ZM55.8317 20.1433H58.3948V35.2507H55.8317V20.1433ZM47.5728 5.83095C48.4272 5.83095 49.2816 6.09599 49.2816 6.89112C49.2816 7.4212 48.4272 7.95129 47.5728 7.95129C47.0032 7.95129 46.1489 7.4212 46.1489 6.89112C46.1489 6.09599 47.0032 5.83095 47.5728 5.83095ZM36.1812 17.7579H42.4466C42.1618 18.0229 41.877 18.8181 41.877 19.3481H36.1812V17.7579ZM47.8576 8.21633L50.1359 10.3367L51.5599 11.6619C54.123 12.7221 56.1165 14.5774 56.6861 16.6977H52.4142C51.2751 15.6375 49.5663 15.1075 47.5728 15.1075C45.8641 15.1075 44.1553 15.6375 43.0162 16.6977H38.7443C39.3139 14.5774 41.3074 12.7221 43.8706 11.6619L45.2945 10.3367L47.8576 8.21633ZM52.9838 17.7579H59.2492V19.3481H53.5534C53.5534 18.8181 53.2686 18.0229 52.9838 17.7579ZM47.8576 16.4327C50.4207 16.4327 52.699 18.0229 52.9838 20.1433H54.9773V35.2507H51.8447V28.3596V28.0946C51.8447 26.5043 49.8511 25.4441 47.5728 25.4441C45.5793 25.4441 43.5858 26.5043 43.5858 28.0946V28.3596V35.2507H40.4531V20.1433H42.7314C42.7314 18.0229 45.0097 16.4327 47.8576 16.4327ZM37.0356 20.1433H39.5987V35.2507H37.0356V20.1433ZM47.5728 98.861C50.4207 98.861 52.9838 100.451 52.9838 102.572C52.9838 104.692 50.4207 106.547 47.5728 106.547C44.7249 106.547 42.4466 104.692 42.4466 102.572C42.4466 100.451 44.7249 98.861 47.5728 98.861ZM31.055 95.1504H35.0421V121.655H31.055V95.1504ZM35.8964 95.1504H59.534V121.655H54.9773V115.029V114.764C54.6926 111.848 51.5599 109.463 47.5728 109.463C43.8706 109.463 40.7379 111.848 40.4531 114.764V115.029V121.655H35.8964V95.1504ZM32.7638 38.6963H36.1812V60.1648H32.7638V38.6963ZM37.3204 38.6963H58.11V60.1648H51.8447V53.5387V53.2736C51.8447 51.6834 49.8511 50.3582 47.5728 50.3582C45.5793 50.3582 43.5858 51.6834 43.5858 53.2736V53.5387V60.1648H37.3204V38.6963ZM47.5728 76.0673C49.8511 76.0673 51.8447 77.3926 51.8447 78.9828V79.2479V86.404H43.5858V79.2479V78.9828C43.5858 77.3926 45.5793 76.0673 47.5728 76.0673ZM31.055 64.4054H35.0421V90.9097H31.055V64.4054ZM35.8964 64.4054H59.534V90.9097H35.8964V64.4054ZM23.6505 155.845H24.5049L21.0874 163.532C20.8026 163.797 20.8026 164.062 20.5178 164.327C20.5178 164.592 20.5178 164.592 20.233 164.857C20.233 165.122 19.9482 165.387 19.6634 165.387C19.6634 165.387 19.3786 165.387 19.0939 165.387C18.8091 165.387 18.5243 165.387 18.2395 165.122V164.327C18.5243 164.592 18.8091 164.592 19.0939 164.592C19.3786 164.592 19.6634 164.592 19.6634 164.592C19.6634 164.327 19.9482 164.062 19.9482 163.797L20.8026 162.206L18.2395 155.845H19.0939L21.0874 161.411L23.6505 155.845ZM30.7702 158.761H31.3398C31.9094 158.761 32.1942 158.496 32.479 158.496C32.7638 158.231 33.0485 157.966 33.0485 157.436C33.0485 156.905 32.479 156.375 31.6246 156.375C30.4854 156.375 29.9159 156.905 29.6311 157.701L28.7767 157.436C29.0615 156.905 29.3463 156.64 29.6311 156.375C30.2006 155.845 30.7702 155.845 31.6246 155.845C32.1942 155.845 32.7638 155.845 33.3333 156.11C33.6181 156.375 33.9029 156.905 33.9029 157.436C33.9029 158.231 33.6181 158.761 32.7638 159.026C33.6181 159.026 34.1877 159.556 34.1877 160.616C34.1877 161.146 33.9029 161.676 33.6181 161.941C33.0485 162.206 32.1942 162.471 31.3398 162.471C30.4854 162.471 29.9159 162.206 29.3463 161.941C29.0615 161.941 28.7767 161.411 28.4919 160.616L29.3463 160.351C29.6311 161.411 30.2006 161.676 31.3398 161.676C31.9094 161.676 32.479 161.676 32.7638 161.411C33.0485 161.146 33.3333 160.881 33.3333 160.616C33.3333 159.821 32.7638 159.291 31.6246 159.291H30.7702V158.761ZM39.8835 159.026V159.291C39.8835 159.556 39.8835 159.821 39.8835 160.086C40.1683 160.351 40.1683 160.616 40.4531 160.881C40.4531 161.146 40.7379 161.411 41.0227 161.411C41.3074 161.676 41.877 161.676 42.1618 161.676C43.301 161.676 44.1553 161.146 44.7249 160.351L45.2945 160.616C44.7249 161.676 43.8706 162.471 42.4466 162.471C41.877 162.471 41.3074 162.206 40.7379 162.206C40.4531 161.941 40.1683 161.676 39.8835 161.676C39.5987 161.411 39.3139 161.146 39.3139 160.616C39.0291 160.351 39.0291 160.086 39.0291 159.821C39.0291 159.556 39.0291 159.291 39.0291 159.026C39.0291 157.966 39.3139 157.17 39.8835 156.64C40.4531 156.11 41.3074 155.845 42.1618 155.845C43.301 155.845 43.8706 156.11 44.4401 156.64C45.0097 157.436 45.2945 158.231 45.2945 159.026H39.8835ZM39.8835 158.496H44.4401C44.4401 157.966 44.1553 157.701 44.1553 157.436C43.8706 157.17 43.5858 156.905 43.5858 156.905C43.301 156.64 43.0162 156.64 42.7314 156.64C42.7314 156.64 42.4466 156.375 42.1618 156.375C41.5922 156.375 41.0227 156.64 40.4531 157.17C40.1683 157.436 39.8835 157.966 39.8835 158.496ZM56.6861 162.206H55.5469V157.436L51.5599 161.411V162.206H50.7055V155.845H51.5599V160.616L55.5469 156.64V155.845H56.6861V162.206ZM54.9773 153.195L55.8317 153.46C55.8317 153.725 55.5469 154.255 54.9773 154.52C54.6926 154.785 54.123 154.785 53.5534 154.785C52.9838 154.785 52.699 154.785 52.1295 154.52C51.8447 154.255 51.5599 153.725 51.5599 153.46L52.1295 153.195C52.4142 153.725 52.699 154.255 53.5534 154.255C54.4078 154.255 54.9773 153.725 54.9773 153.195ZM68.0777 162.206H67.2233V156.64H63.2362V162.206H62.3819V155.845H68.0777V162.206ZM79.754 159.026C79.754 160.086 79.4693 160.881 78.8997 161.676C78.0453 162.206 77.4757 162.471 76.6214 162.471C75.4822 162.471 74.9126 162.206 74.343 161.411C73.4887 160.881 73.2039 160.086 73.2039 159.291C73.2039 158.231 73.4887 157.436 74.0583 156.64C74.9126 156.11 75.4822 155.845 76.6214 155.845C77.7605 155.845 78.3301 156.11 78.8997 156.905C79.4693 157.436 79.754 158.231 79.754 159.026ZM78.8997 159.026C78.8997 158.231 78.6149 157.436 78.3301 157.17C77.7605 156.64 77.1909 156.375 76.6214 156.375C75.767 156.375 75.1974 156.64 74.9126 157.17C74.343 157.701 74.343 158.231 74.343 159.291C74.343 160.086 74.6278 160.616 74.9126 161.146C75.4822 161.411 75.767 161.676 76.6214 161.676C77.1909 161.676 77.7605 161.411 78.0453 161.146C78.6149 160.616 78.8997 160.086 78.8997 159.026ZM90.8608 161.676H92V163.797H91.1456V162.206H85.1651V163.797H84.3107V161.676C85.4498 161.146 86.0194 159.556 86.0194 156.905V155.845H90.8608V161.676ZM90.0065 156.64H86.8738V156.905C86.8738 158.231 86.8738 159.026 86.589 159.821C86.3042 160.881 86.0194 161.411 85.4498 161.676H90.0065V156.64ZM12.2589 170.423C12.2589 171.483 11.6893 172.278 11.1197 172.808C10.5502 173.338 9.69579 173.603 8.84142 173.603C7.98706 173.603 7.13269 173.338 6.56311 172.808C5.99353 172.278 5.70874 171.483 5.70874 170.423C5.70874 169.362 5.99353 168.567 6.56311 168.037C7.13269 167.507 7.98706 166.977 8.84142 166.977C9.98058 166.977 10.835 167.507 11.4045 168.037C11.6893 168.832 11.9741 169.362 12.2589 170.423ZM11.1197 170.423C11.1197 169.362 10.835 168.832 10.5502 168.302C9.98058 168.037 9.411 167.772 8.84142 167.772C8.27184 167.772 7.70227 168.037 7.13269 168.567C6.8479 168.832 6.56311 169.628 6.56311 170.423C6.56311 171.483 6.8479 172.013 7.13269 172.543C7.70227 172.808 8.27184 173.073 8.84142 173.073C9.411 173.073 9.98058 172.808 10.5502 172.278C10.835 172.013 11.1197 171.218 11.1197 170.423ZM22.2265 168.037H19.6634V173.603H18.8091V168.037H16.246V167.242H22.2265V168.037ZM27.9223 167.242V169.893H29.3463C29.9159 169.893 30.2006 169.893 30.4854 169.628C30.7702 169.362 30.7702 169.097 30.7702 168.832C30.7702 168.832 31.055 168.302 31.055 168.037C31.055 167.772 31.3398 167.507 31.3398 167.242H32.479C32.1942 167.507 32.1942 167.772 31.9094 168.037C31.9094 168.567 31.6246 168.832 31.6246 169.097C31.6246 169.362 31.6246 169.362 31.3398 169.628C31.3398 169.893 31.055 170.158 30.4854 170.158C31.055 170.158 31.3398 170.423 31.3398 170.688C31.6246 170.953 31.9094 171.218 31.9094 171.483C31.9094 171.748 31.9094 172.013 32.1942 172.543C32.1942 172.808 32.479 173.338 32.479 173.603H31.6246C31.3398 173.338 31.3398 173.073 31.3398 172.808C31.055 172.543 31.055 172.278 31.055 172.013C31.055 171.748 31.055 171.483 30.7702 171.483C30.7702 171.218 30.4854 170.953 30.2006 170.688C30.2006 170.688 29.6311 170.688 29.3463 170.688H27.9223V173.603H27.068V167.242H27.9223ZM37.3204 167.242H38.1748V168.302C38.4595 168.037 38.7443 167.772 39.0291 167.507C39.3139 167.242 39.8835 167.242 40.4531 167.242C41.0227 167.242 41.3074 167.242 41.877 167.242C42.1618 167.507 42.4466 167.772 42.7314 168.037C42.7314 168.037 43.0162 168.302 43.0162 168.832C43.301 169.097 43.301 169.362 43.301 169.628C43.301 169.893 43.301 170.158 43.301 170.423C43.301 170.688 43.301 171.218 43.301 171.483C43.301 171.748 43.0162 172.013 42.7314 172.543C42.7314 172.808 42.4466 173.073 41.877 173.338C41.5922 173.603 41.0227 173.603 40.4531 173.603C39.8835 173.603 39.3139 173.603 39.0291 173.338C38.7443 173.073 38.4595 172.808 38.1748 172.543V176.784H37.3204V167.242ZM38.1748 170.423V170.688C38.1748 171.483 38.4595 172.013 39.0291 172.543C39.3139 172.808 39.8835 173.073 40.1683 173.073C40.7379 173.073 41.3074 172.808 41.5922 172.543C41.877 172.278 42.1618 172.013 42.1618 171.483C42.4466 171.218 42.4466 170.688 42.4466 170.423C42.4466 169.628 42.1618 168.832 41.877 168.567C41.5922 168.037 41.0227 167.772 40.4531 167.772C39.8835 167.772 39.5987 167.772 39.3139 168.037C39.0291 168.302 38.7443 168.567 38.7443 168.832C38.4595 169.097 38.4595 169.362 38.4595 169.628C38.1748 169.893 38.1748 170.158 38.1748 170.423ZM48.712 173.603V167.242H49.5663V169.893H50.4207C50.9903 169.893 51.2751 169.893 51.2751 169.893C51.5599 169.893 51.8447 169.893 52.1295 169.893C52.4142 169.893 52.699 169.893 52.9838 170.158C52.9838 170.158 53.2686 170.158 53.5534 170.423C53.5534 170.423 53.8382 170.688 53.8382 170.953C53.8382 171.218 54.123 171.483 54.123 171.748C54.123 172.278 53.8382 172.808 53.5534 173.073C52.9838 173.338 52.4142 173.603 51.8447 173.603H48.712ZM49.5663 172.808H50.9903C51.8447 172.808 52.4142 172.808 52.699 172.543C52.9838 172.543 52.9838 172.278 52.9838 171.748C52.9838 171.218 52.9838 170.953 52.4142 170.688C52.1295 170.423 51.5599 170.423 50.9903 170.423H49.5663V172.808ZM55.8317 173.603H54.9773V167.242H55.8317V173.603ZM66.3689 168.037H64.0906V173.603H62.9515V168.037H60.6731V167.242H66.3689V168.037ZM71.2104 173.603V167.242H72.0647V169.893H72.9191C73.4887 169.893 73.7735 169.893 74.0583 169.893C74.0583 169.893 74.343 169.893 74.6278 169.893C75.1974 169.893 75.1974 169.893 75.4822 170.158C75.767 170.158 75.767 170.158 76.0518 170.423C76.3366 170.423 76.3366 170.688 76.3366 170.953C76.6214 171.218 76.6214 171.483 76.6214 171.748C76.6214 172.278 76.3366 172.808 76.0518 173.073C75.4822 173.338 75.1974 173.603 74.343 173.603H71.2104ZM72.0647 172.808H73.4887C74.343 172.808 74.9126 172.808 75.1974 172.543C75.4822 172.543 75.767 172.278 75.767 171.748C75.767 171.218 75.4822 170.953 75.1974 170.688C74.6278 170.423 74.0583 170.423 73.4887 170.423H72.0647V172.808ZM78.3301 173.603H77.4757V167.242H78.3301V173.603ZM91.4304 173.603H90.5761V168.302L88.0129 173.603H87.4434L84.8803 168.302C84.8803 168.302 84.8803 168.832 84.8803 169.893C84.8803 170.688 84.8803 171.483 84.8803 172.278C84.8803 173.073 84.8803 173.603 84.8803 173.603H84.0259V167.242H85.1651L87.7282 172.278L90.0065 167.242H91.4304V173.603ZM11.6893 184.735H10.835V181.819H7.13269V184.735H5.99353V178.639H7.13269V181.289H10.835V178.639H11.6893V184.735ZM26.2136 181.819C26.2136 182.085 26.2136 182.35 26.2136 182.615C26.2136 182.88 26.4984 183.145 26.4984 183.41C26.7832 183.675 27.068 183.94 27.3528 183.94C27.6375 184.205 28.2071 184.205 28.4919 184.205C29.6311 184.205 30.4854 183.94 30.7702 182.88L31.6246 183.145C31.055 184.47 30.2006 185 28.4919 185C27.9223 185 27.6375 185 27.068 184.735C26.7832 184.47 26.4984 184.47 26.2136 184.205C25.9288 183.94 25.644 183.675 25.644 183.41C25.3592 182.88 25.3592 182.615 25.3592 182.35C25.3592 182.085 25.0744 181.819 25.0744 181.554C25.0744 180.494 25.644 179.699 26.2136 179.169C26.7832 178.639 27.6375 178.374 28.4919 178.374C29.3463 178.374 30.2006 178.639 30.7702 179.434C31.3398 179.964 31.6246 180.759 31.6246 181.554V181.819H26.2136ZM26.2136 181.024H30.7702C30.7702 180.759 30.4854 180.229 30.4854 179.964C30.2006 179.699 29.9159 179.699 29.9159 179.434C29.6311 179.434 29.3463 179.169 29.0615 179.169C28.7767 179.169 28.7767 179.169 28.4919 179.169C27.9223 179.169 27.3528 179.169 26.7832 179.699C26.4984 179.964 26.2136 180.494 26.2136 181.024ZM50.1359 175.458H50.9903C50.9903 176.254 50.4207 176.784 49.2816 176.784C47.8576 177.049 47.0032 177.314 46.4337 177.579C46.1489 178.109 45.8641 178.904 45.5793 179.699C45.8641 179.434 46.4337 179.169 46.7184 178.904C47.288 178.639 47.5728 178.639 48.1424 178.639C49.2816 178.639 49.8511 178.904 50.4207 179.434C50.9903 179.964 51.2751 180.759 51.2751 181.819C51.2751 182.085 51.2751 182.615 50.9903 182.88C50.9903 183.145 50.7055 183.675 50.7055 183.94C50.4207 184.205 50.1359 184.47 49.5663 184.735C48.9968 185 48.712 185 48.1424 185C47.0032 185 46.1489 184.735 45.5793 183.94C45.0097 183.41 44.7249 182.615 44.7249 181.554C44.7249 180.229 45.0097 179.169 45.2945 178.374C45.5793 177.579 45.8641 177.049 46.4337 176.784C47.288 176.519 48.1424 176.254 49.2816 176.254C49.5663 176.254 49.5663 176.254 49.8511 175.989C49.8511 175.989 49.8511 175.989 50.1359 175.989C50.1359 175.723 50.1359 175.723 50.1359 175.458ZM50.4207 181.819C50.4207 179.964 49.5663 179.169 48.1424 179.169C47.288 179.169 46.7184 179.434 46.4337 179.964C45.8641 180.494 45.8641 181.024 45.8641 181.819C45.8641 182.615 45.8641 183.145 46.4337 183.675C46.7184 184.205 47.288 184.205 48.1424 184.205C48.712 184.205 49.2816 184.205 49.5663 183.675C50.1359 183.145 50.4207 182.615 50.4207 181.819ZM70.6408 181.554C70.6408 182.88 70.356 183.675 69.7864 184.205C68.932 184.735 68.3625 185 67.5081 185C66.3689 185 65.7994 184.735 65.2298 184.205C64.3754 183.675 64.0906 182.88 64.0906 181.819C64.0906 180.759 64.3754 179.964 64.945 179.434C65.5146 178.639 66.3689 178.374 67.5081 178.374C68.3625 178.374 69.2168 178.639 69.7864 179.434C70.356 179.964 70.6408 180.759 70.6408 181.554ZM69.7864 181.554C69.7864 180.759 69.5016 179.964 68.932 179.699C68.6472 179.169 68.0777 179.169 67.5081 179.169C66.6537 179.169 66.0841 179.169 65.7994 179.699C65.2298 180.229 65.2298 180.759 65.2298 181.819C65.2298 182.615 65.2298 183.41 65.7994 183.675C66.3689 184.205 66.6537 184.205 67.5081 184.205C68.0777 184.205 68.6472 184.205 68.932 183.675C69.5016 183.145 69.7864 182.615 69.7864 181.554ZM91.4304 184.735H90.5761V179.699L88.0129 184.735H87.4434L84.8803 179.434C84.8803 179.699 84.8803 180.229 84.8803 181.024C84.8803 182.085 84.8803 182.88 84.8803 183.675C84.8803 184.47 84.8803 184.735 84.8803 184.735H84.0259V178.639H85.1651L87.7282 183.675L90.0065 178.639H91.4304V184.735Z" fill="#2F80ED"/>
</g>
<defs>
<filter id="filter0_dd" x="0" y="0" width="96" height="193" filterUnits="userSpaceOnUse" color-interpolation-filters="sRGB">
<feFlood flood-opacity="0" result="BackgroundImageFix"/>
<feColorMatrix in="SourceAlpha" type="matrix" values="0 0 0 0 0 0 0 0 0 0 0 0 0 0 0 0 0 0 127 0" result="hardAlpha"/>
<feOffset dy="4"/>
<feGaussianBlur stdDeviation="2"/>
<feComposite in2="hardAlpha" operator="out"/>
<feColorMatrix type="matrix" values="0 0 0 0 0 0 0 0 0 0 0 0 0 0 0 0 0 0 0.25 0"/>
<feBlend mode="normal" in2="BackgroundImageFix" result="effect1_dropShadow"/>
<feColorMatrix in="SourceAlpha" type="matrix" values="0 0 0 0 0 0 0 0 0 0 0 0 0 0 0 0 0 0 127 0" result="hardAlpha"/>
<feOffset dy="4"/>
<feGaussianBlur stdDeviation="2"/>
<feComposite in2="hardAlpha" operator="out"/>
<feColorMatrix type="matrix" values="0 0 0 0 0 0 0 0 0 0 0 0 0 0 0 0 0 0 0.25 0"/>
<feBlend mode="normal" in2="effect1_dropShadow" result="effect2_dropShadow"/>
<feBlend mode="normal" in="SourceGraphic" in2="effect2_dropShadow" result="shape"/>
</filter>
</defs>
</svg>
