<svg width="42" height="34" viewBox="0 0 42 34" fill="none" xmlns="http://www.w3.org/2000/svg">
<g opacity="0.9" filter="url(#filter0_d)">
<path d="M27.697 14.2501C27.697 14.2501 27.697 14.2501 27.903 14.2501L28.1091 14.4561L28.3152 14.6622C28.3152 14.6622 28.3152 14.6622 28.5212 14.6622V14.8682C28.7273 14.8682 28.9333 15.0743 29.1394 15.2804C29.5515 15.4864 29.7576 15.6925 29.9636 15.8985C30.1697 16.1046 30.1697 16.1046 30.1697 16.1046C30.3758 16.1046 30.5818 16.3107 30.5818 16.3107C30.5818 16.5167 30.5818 16.5167 30.5818 16.5167C30.7879 16.5167 30.7879 16.5167 30.7879 16.7228C30.7879 16.7228 30.9939 16.7228 30.9939 16.9288L31.2 17.1349C31.2 17.341 31.4061 17.341 31.4061 17.341C31.4061 17.341 31.4061 17.341 31.4061 17.547C31.4061 17.547 31.4061 17.547 31.6121 17.547V17.7531C31.8182 17.7531 31.8182 17.9592 32.0242 18.1652C32.2303 18.3713 32.2303 18.3713 32.4364 18.5773C32.4364 18.5773 32.4364 18.5773 32.4364 18.7834C32.6424 18.7834 32.6424 18.9895 32.6424 18.9895C32.8485 19.1955 32.8485 19.1955 32.8485 19.1955C32.8485 19.4016 33.0545 19.4016 33.0545 19.4016C33.0545 19.4016 33.0545 19.4016 33.0545 19.6076C33.2606 19.6076 33.2606 19.6076 33.2606 19.6076V19.8137H33.4667C33.4667 20.0198 33.4667 20.0198 33.4667 20.0198C33.4667 20.0198 33.4667 20.0198 33.6727 20.0198C33.6727 20.2258 33.8788 20.4319 34.0848 20.6379C34.0848 20.844 34.0848 20.844 34.0848 20.844C34.2909 20.844 34.2909 21.0501 34.2909 21.0501C34.2909 21.0501 34.2909 21.0501 34.497 21.0501V21.2561C34.703 21.4622 34.9091 21.6682 34.9091 21.6682C34.9091 21.8743 34.9091 21.8743 34.9091 21.8743C35.1152 21.8743 35.1152 21.8743 35.1152 22.0804C35.1152 22.0804 35.1152 22.0804 35.3212 22.0804V22.2864C35.5273 22.2864 35.5273 22.4925 35.5273 22.4925C35.7333 22.6985 35.7333 22.6985 35.9394 22.9046V23.1107H36.1455C36.1455 23.3167 36.1455 23.3167 36.1455 23.3167C36.3515 23.3167 36.3515 23.5228 36.5576 23.7288C36.7636 23.9349 36.9697 24.141 37.1758 24.347C37.1758 24.5531 37.1758 24.5531 37.1758 24.5531C37.3818 24.7591 37.3818 24.7591 37.3818 24.7591C37.3818 24.7591 37.5879 24.9652 37.5879 25.1713H37.7939C37.7939 25.3773 38 25.3773 38 25.5834C37.5879 25.3773 37.3818 25.1713 36.9697 24.7591C36.7636 24.5531 36.5576 24.5531 36.3515 24.347C36.3515 24.347 36.3515 24.347 36.1455 24.347C36.1455 24.141 35.9394 24.141 35.9394 23.9349H35.7333C35.7333 23.9349 35.5273 23.9349 35.5273 23.7288C35.3212 23.7288 35.3212 23.7288 35.3212 23.5228H35.1152C34.703 23.1107 34.0848 22.9046 33.6727 22.4925C33.4667 22.2864 33.4667 22.2864 33.4667 22.2864C33.4667 22.2864 33.2606 22.2864 33.2606 22.0804C33.0545 22.0804 33.0545 22.0804 32.8485 21.8743C32.4364 21.6682 32.2303 21.4622 32.0242 21.2561C32.0242 21.2561 32.0242 21.2561 31.8182 21.2561C31.8182 21.0501 31.8182 21.0501 31.8182 21.0501C31.4061 20.844 30.9939 20.6379 30.7879 20.4319C30.7879 20.4319 30.7879 20.4319 30.5818 20.2258C30.5818 20.2258 30.5818 20.0198 30.3758 20.0198C29.3455 18.3713 28.3152 16.5167 27.2848 14.8682C27.2848 14.6622 27.4909 14.6622 27.4909 14.4561C27.4909 14.4561 27.4909 14.4561 27.697 14.4561C27.697 14.2501 27.697 14.2501 27.697 14.2501ZM21.9273 0.237938C22.9576 0.0318777 23.9879 -0.174183 25.0182 0.237938C26.0485 0.443999 27.0788 0.85612 27.697 1.68036C29.1394 2.91673 30.1697 4.77127 29.9636 6.62582C30.1697 7.45006 29.7576 8.2743 29.5515 9.09854C29.1394 10.3349 28.5212 11.5713 27.903 12.8076C26.6667 14.8682 25.2242 16.7228 23.3697 18.5773C22.3394 17.341 21.3091 16.1046 20.4848 14.8682C19.4545 13.6319 18.6303 12.1895 18.0121 10.747C17.3939 9.51067 16.7758 8.2743 16.7758 6.83188C16.7758 4.77127 17.6 2.91673 19.0424 1.68036C19.8667 0.85612 20.897 0.443999 21.9273 0.237938ZM23.1636 2.91673C22.3394 3.12279 21.5152 3.32885 21.103 3.94703C20.2788 4.56521 19.6606 5.80157 19.8667 6.83188C19.8667 8.2743 20.897 9.51067 22.3394 9.92279C22.9576 10.3349 23.7818 10.3349 24.6061 10.1288C25.8424 9.71673 26.6667 8.48036 27.0788 7.244C27.0788 6.2137 26.8727 4.97733 26.0485 4.15309C25.2242 3.32885 24.1939 2.91673 23.1636 2.91673ZM21.103 16.7228V16.9288L21.3091 17.1349C21.3091 17.341 21.5152 17.341 21.5152 17.341C21.5152 17.547 21.5152 17.547 21.5152 17.547C21.7212 17.547 21.7212 17.7531 21.9273 17.9592C22.1333 18.1652 22.3394 18.1652 22.3394 18.3713C22.3394 18.3713 22.3394 18.5773 22.5455 18.5773C22.7515 18.7834 22.9576 18.9895 23.3697 19.4016C23.1636 19.8137 22.7515 20.2258 22.9576 20.6379C22.9576 20.844 22.9576 21.0501 22.9576 21.0501C22.9576 21.2561 22.7515 21.2561 22.7515 21.4622H22.5455C22.5455 21.6682 22.3394 21.6682 22.3394 21.6682C22.3394 21.6682 22.3394 21.6682 22.1333 21.8743C21.9273 22.0804 21.5152 22.2864 21.103 22.2864C21.103 22.2864 21.103 22.2864 21.103 22.0804C21.103 21.6682 21.103 21.0501 21.103 20.4319C21.103 20.2258 21.103 20.2258 21.103 20.0198C21.103 19.4016 21.103 18.7834 21.103 18.3713C21.103 18.1652 21.103 17.9592 20.897 17.9592C20.897 17.547 20.897 17.1349 21.103 16.7228ZM13.8909 16.7228H14.097C14.303 16.7228 14.5091 16.7228 14.7152 16.7228C15.3333 16.7228 15.9515 16.9288 16.3636 17.341C17.1879 17.9592 17.6 18.9895 18.2182 20.0198C18.4242 20.4319 18.6303 20.844 18.8364 21.2561C19.0424 21.2561 19.0424 21.4622 19.0424 21.4622C19.0424 21.4622 19.0424 21.4622 19.2485 21.6682C19.2485 21.6682 19.4545 21.8743 19.6606 22.0804C19.6606 22.0804 19.6606 22.2864 19.8667 22.2864C20.0727 22.2864 20.4848 22.4925 20.6909 22.6985C20.6909 23.1107 20.6909 23.5228 20.6909 24.141C20.6909 24.347 20.6909 24.5531 20.6909 24.7591V24.9652C17.6 23.5228 14.7152 22.0804 11.6242 20.4319C11.6242 20.4319 11.6242 20.4319 11.8303 20.2258C11.8303 20.0198 11.8303 20.0198 12.0364 19.8137C12.0364 19.6076 12.2424 19.4016 12.2424 19.4016L12.4485 19.1955C12.4485 18.7834 12.6545 18.5773 12.8606 18.1652C13.0667 17.7531 13.4788 17.1349 13.6848 16.7228C13.6848 16.7228 13.6848 16.7228 13.8909 16.7228ZM14.303 18.3713C14.303 18.5773 14.5091 18.3713 14.303 18.3713V18.3713ZM12.8606 19.6076C12.6545 19.8137 12.8606 19.8137 12.8606 19.8137C12.8606 19.6076 12.8606 19.6076 12.8606 19.6076ZM15.7455 12.8076C16.7758 13.4258 18.0121 14.044 19.0424 14.6622C19.2485 14.6622 19.4545 14.6622 19.4545 14.8682C19.8667 15.2804 20.0727 15.6925 20.4848 16.1046V16.3107C20.6909 16.3107 20.897 16.5167 20.897 16.7228C20.897 17.1349 20.897 17.7531 20.897 18.3713C20.897 18.5773 20.897 18.7834 20.897 18.9895C20.897 19.4016 20.897 19.8137 20.897 20.2258C20.897 20.4319 20.897 20.6379 20.897 20.844C20.897 21.2561 20.897 21.8743 20.897 22.2864C20.2788 22.0804 19.8667 21.8743 19.4545 21.4622V21.2561C18.6303 20.4319 18.2182 19.4016 17.8061 18.5773C17.6 18.1652 17.3939 17.9592 17.1879 17.547C16.9818 17.547 16.9818 17.547 16.9818 17.547C16.9818 17.341 16.7758 17.341 16.7758 17.1349C16.7758 17.1349 16.7758 17.1349 16.5697 17.1349C16.3636 16.9288 15.9515 16.7228 15.5394 16.5167C14.9212 16.3107 14.5091 16.3107 13.8909 16.3107C14.303 15.4864 14.9212 14.4561 15.5394 13.4258C14.9212 14.4561 14.303 15.2804 13.6848 16.3107C13.4788 16.5167 13.2727 16.5167 13.0667 16.7228C12.6545 16.7228 12.4485 16.9288 12.0364 17.1349C11.8303 16.9288 11.6242 17.1349 11.2121 17.341C11.0061 17.547 10.8 17.7531 10.5939 17.9592C10.5939 18.1652 10.5939 18.1652 10.3879 18.1652C10.1818 18.5773 9.97576 18.9895 9.97576 19.4016C9.97576 19.6076 9.97576 19.6076 9.97576 19.6076C10.3879 19.6076 10.5939 19.4016 10.8 19.1955C10.8 19.1955 11.0061 19.1955 11.0061 18.9895C11.0061 18.9895 11.2121 18.9895 11.2121 18.7834C11.2121 18.7834 11.4182 18.7834 11.4182 18.5773C11.4182 18.5773 11.4182 18.3713 11.6242 18.3713C11.6242 18.3713 11.6242 18.3713 11.6242 18.1652C11.8303 17.9592 11.8303 17.7531 12.0364 17.547C12.4485 17.341 12.8606 17.1349 13.2727 16.9288C12.8606 17.9592 12.0364 18.7834 11.6242 19.8137C11.4182 20.0198 11.4182 20.2258 11.2121 20.2258C11.2121 20.4319 11.2121 20.4319 11.0061 20.4319C10.8 20.6379 10.5939 20.844 10.3879 21.0501C10.1818 21.0501 10.1818 21.0501 10.1818 21.0501C9.97576 21.0501 9.97576 21.0501 9.97576 21.2561C9.7697 21.4622 9.35758 21.6682 9.15152 21.6682C9.15152 21.6682 9.15152 21.6682 9.15152 21.8743C8.94545 21.8743 8.73939 22.0804 8.53333 22.0804C8.53333 22.2864 8.53333 22.2864 8.53333 22.2864C8.32727 22.2864 8.32727 22.2864 8.32727 22.4925C8.12121 22.4925 8.12121 22.4925 8.12121 22.4925C7.91515 22.6985 7.70909 22.9046 7.50303 23.1107C7.09091 23.3167 6.67879 23.5228 6.47273 23.7288C6.26667 23.7288 6.26667 23.7288 6.26667 23.7288C6.26667 23.9349 6.26667 23.9349 6.06061 23.9349C5.64848 24.347 5.44242 24.5531 5.0303 24.7591H4.82424C4.61818 24.9652 4.41212 25.1713 4 25.3773C4 25.3773 4 25.3773 4.20606 25.1713C4.41212 24.9652 4.41212 24.7591 4.61818 24.7591C4.61818 24.7591 4.61818 24.7591 4.61818 24.5531C4.82424 24.5531 4.82424 24.5531 4.82424 24.347C4.82424 24.141 5.0303 23.9349 5.23636 23.7288C5.23636 23.7288 5.23636 23.7288 5.44242 23.7288C5.44242 23.5228 5.64848 23.3167 5.64848 23.3167C5.64848 23.3167 5.85455 23.3167 5.85455 23.1107L6.06061 22.9046C6.06061 22.6985 6.26667 22.6985 6.26667 22.4925C6.47273 22.4925 6.47273 22.2864 6.47273 22.2864L6.67879 22.0804C6.67879 21.8743 6.88485 21.8743 6.88485 21.8743C6.88485 21.8743 6.88485 21.8743 6.88485 21.6682C6.88485 21.6682 7.09091 21.6682 7.09091 21.4622C7.29697 21.4622 7.29697 21.4622 7.29697 21.2561L7.50303 21.0501C7.50303 20.844 7.70909 20.844 7.70909 20.844C7.91515 20.4319 8.12121 20.2258 8.32727 20.0198C8.32727 20.0198 8.32727 20.0198 8.53333 19.8137C8.53333 19.8137 8.53333 19.6076 8.73939 19.6076C8.73939 19.4016 8.73939 19.4016 8.94545 19.4016C8.94545 19.4016 8.94545 19.4016 8.94545 19.1955C9.15152 19.1955 9.15152 19.1955 9.15152 18.9895L9.35758 18.7834C9.56364 18.5773 9.56364 18.5773 9.56364 18.5773C9.56364 18.3713 9.7697 18.3713 9.7697 18.1652C9.97576 18.1652 9.97576 18.1652 9.97576 18.1652C9.97576 17.9592 10.1818 17.7531 10.1818 17.7531C10.3879 17.547 10.3879 17.547 10.3879 17.547C10.5939 17.341 10.5939 17.341 10.5939 17.341C10.5939 17.341 10.5939 17.341 10.5939 17.1349H10.8C10.8 16.9288 11.0061 16.9288 11.0061 16.7228C11.0061 16.7228 11.0061 16.7228 11.2121 16.7228C11.2121 16.3107 11.4182 16.1046 11.6242 16.1046C11.8303 16.1046 11.8303 16.1046 11.8303 15.8985C12.0364 15.6925 12.2424 15.4864 12.4485 15.4864C12.4485 15.4864 12.6545 15.4864 12.6545 15.2804C12.8606 15.0743 13.0667 15.0743 13.2727 14.8682L13.4788 14.6622C13.4788 14.6622 13.4788 14.6622 13.6848 14.6622V14.4561C13.6848 14.4561 13.8909 14.4561 13.8909 14.2501C14.097 14.2501 14.097 14.2501 14.097 14.2501C14.097 14.2501 14.097 14.2501 14.097 14.044C14.303 14.044 14.303 14.044 14.303 14.044C14.5091 13.8379 14.5091 13.8379 14.7152 13.6319C14.9212 13.6319 14.9212 13.6319 14.9212 13.6319C14.9212 13.4258 15.1273 13.4258 15.1273 13.4258C15.1273 13.4258 15.1273 13.4258 15.3333 13.4258C15.3333 13.2198 15.5394 13.0137 15.7455 12.8076ZM15.5394 13.2198V13.4258V13.2198ZM27.0788 14.8682C28.3152 16.7228 29.1394 18.5773 30.1697 20.4319C27.2848 22.0804 24.1939 23.5228 21.103 24.9652V24.7591C21.103 24.5531 21.103 24.347 21.103 24.141C21.103 23.5228 21.103 23.1107 21.103 22.6985C21.7212 22.4925 22.1333 22.2864 22.5455 22.0804C22.5455 22.0804 22.5455 22.0804 22.5455 21.8743C22.7515 21.6682 22.9576 21.6682 23.1636 21.4622C23.1636 21.2561 23.1636 21.2561 23.1636 21.2561C23.5758 21.2561 23.9879 21.0501 24.4 20.844L24.6061 20.6379C24.8121 20.2258 25.0182 19.8137 25.2242 19.4016V19.1955C25.2242 18.9895 25.2242 18.9895 25.2242 18.9895C25.0182 18.7834 25.0182 18.5773 24.8121 18.5773C24.6061 18.3713 24.6061 18.3713 24.6061 18.5773C24.4 18.5773 24.1939 18.5773 24.1939 18.5773L24.4 18.3713L24.6061 18.1652C24.6061 18.1652 24.8121 17.9592 24.8121 17.7531H25.0182C25.0182 17.547 25.0182 17.547 25.2242 17.547V17.341C25.4303 17.341 25.4303 17.1349 25.4303 17.1349H25.6364C25.6364 16.9288 25.6364 16.9288 25.6364 16.9288L25.8424 16.7228C25.8424 16.7228 25.8424 16.7228 25.8424 16.5167C26.0485 16.5167 26.0485 16.5167 26.0485 16.5167V16.3107C26.2545 16.3107 26.2545 16.3107 26.2545 16.3107V16.1046H26.4606C26.6667 15.6925 26.8727 15.4864 27.0788 15.2804C27.0788 15.0743 27.0788 15.0743 27.0788 15.0743C27.0788 15.0743 27.0788 15.0743 27.0788 14.8682Z" fill="#2F80ED"/>
</g>
<defs>
<filter id="filter0_d" x="0" y="0" width="42" height="33.5834" filterUnits="userSpaceOnUse" color-interpolation-filters="sRGB">
<feFlood flood-opacity="0" result="BackgroundImageFix"/>
<feColorMatrix in="SourceAlpha" type="matrix" values="0 0 0 0 0 0 0 0 0 0 0 0 0 0 0 0 0 0 127 0" result="hardAlpha"/>
<feOffset dy="4"/>
<feGaussianBlur stdDeviation="2"/>
<feComposite in2="hardAlpha" operator="out"/>
<feColorMatrix type="matrix" values="0 0 0 0 0 0 0 0 0 0 0 0 0 0 0 0 0 0 0.25 0"/>
<feBlend mode="normal" in2="BackgroundImageFix" result="effect1_dropShadow"/>
<feBlend mode="normal" in="SourceGraphic" in2="effect1_dropShadow" result="shape"/>
</filter>
</defs>
</svg>
