<svg width="48" height="40" viewBox="0 0 48 40" fill="none" xmlns="http://www.w3.org/2000/svg">
<path fill-rule="evenodd" clip-rule="evenodd" d="M29.2956 35.0102L30.0051 35.233C29.8989 35.6467 29.7138 35.9544 29.4602 36.156C29.2065 36.354 28.8843 36.4565 28.4936 36.4565C28.0103 36.4565 27.6161 36.2833 27.3042 35.9438C26.9923 35.6043 26.838 35.1375 26.838 34.5469C26.838 33.921 26.9923 33.4365 27.3042 33.0899C27.6195 32.7433 28.0308 32.5701 28.5381 32.5701C28.9837 32.5701 29.347 32.708 29.6247 32.9803C29.7892 33.1394 29.9126 33.3693 29.9949 33.6734L29.2682 33.8502C29.2271 33.6557 29.138 33.5037 29.0009 33.3905C28.8638 33.2773 28.6992 33.2208 28.5039 33.2208C28.2331 33.2208 28.0137 33.3198 27.8458 33.5214C27.6778 33.7194 27.5921 34.0447 27.5921 34.4903C27.5921 34.9642 27.6778 35.3037 27.8423 35.5017C28.0069 35.7033 28.2228 35.8059 28.4867 35.8059C28.6821 35.8059 28.85 35.7422 28.9906 35.6149C29.1311 35.484 29.2339 35.2825 29.2956 35.0102ZM0 24.8572H6.6461V31.7143H0V24.8572ZM0 0H6.6461V6.85704H0V0ZM0 8.28574H6.6461V15.1428H0V8.28574ZM0 16.5715H6.6461V23.4285H0V16.5715ZM0 33.143H6.6461V40H0V33.143ZM36.1302 36.3894H39.6401V35.7599H39.3213V32.6408H36.8089V33.0369C36.8089 33.684 36.7849 34.218 36.7369 34.6424C36.6889 35.0667 36.5895 35.4381 36.4387 35.7599H36.1302V36.3894ZM8.49357 0H48V5.49907C47.8355 5.30811 47.6572 5.11714 47.4721 4.93679C45.892 3.39846 43.7258 2.62753 40.9666 2.62753C38.4507 2.62753 36.353 3.29237 34.6769 4.61498C32.9974 5.94112 32.0034 8.13014 31.6847 11.1785L37.0317 11.7266C37.1345 10.1105 37.5116 8.95412 38.1697 8.26452C38.8346 7.56785 39.7189 7.21775 40.8363 7.21775C41.9606 7.21775 42.8449 7.54664 43.4824 8.21148C44.1268 8.87632 44.4456 9.82053 44.4456 11.0547C44.4456 12.1758 44.0754 13.3039 43.3419 14.4461C42.7935 15.2701 41.3162 16.8473 38.9032 19.1707C35.9109 22.0493 33.9023 24.3586 32.8877 26.095C31.8732 27.8349 31.2631 29.6738 31.0608 31.6188H48V32.6408H46.4713C46.108 32.6408 45.8338 32.6691 45.6521 32.7292C45.467 32.7893 45.3196 32.9096 45.2099 33.0864C45.0968 33.2632 45.042 33.4648 45.042 33.6946C45.042 33.9563 45.1174 34.1827 45.2682 34.3701C45.4156 34.561 45.659 34.6813 45.9983 34.7379C45.844 34.8263 45.7138 34.9324 45.6075 35.0491C45.5047 35.1658 45.3642 35.3709 45.1894 35.6609L44.7472 36.3929H45.6247L46.1525 35.5725C46.3822 35.2188 46.5467 35.0031 46.6392 34.9324C46.7352 34.8616 46.8997 34.8263 47.1328 34.8263H47.2802V36.3929H48V40H8.49357V31.7143H13.2785V19.5845H14.2862C15.4276 19.5845 16.2639 19.6941 16.7952 19.9098C17.3196 20.1255 17.8166 20.5322 18.2862 21.1122C18.7592 21.6992 19.6332 23.1209 20.9083 25.3735L24.4627 31.7143H30.389L27.3967 26.049C26.2177 23.7892 25.2819 22.2155 24.5827 21.3279C23.8937 20.4438 23.0129 19.6304 21.9434 18.8949C24.0925 18.5236 25.7035 17.6289 26.7832 16.2108C27.8629 14.7891 28.401 12.9927 28.401 10.8072C28.401 9.09203 28.0411 7.56785 27.3282 6.2311C26.6118 4.89789 25.6624 3.97136 24.4696 3.45151C23.2802 2.93166 21.371 2.66643 18.7489 2.66643H8.49357V0ZM31.3282 36.3929V33.2738H30.2519V32.6408H33.138V33.2738H32.0651V36.3929H31.3282ZM33.2408 32.6408H34.0668L34.9135 34.5823L35.6401 32.6408H36.4045L35.174 35.4911C35.0403 35.8023 34.9066 36.0357 34.7661 36.1984C34.629 36.3575 34.4473 36.4389 34.2279 36.4389C34.012 36.4389 33.844 36.4247 33.7206 36.3964V35.8306C33.8235 35.8377 33.9195 35.8412 34.0017 35.8412C34.1731 35.8412 34.2931 35.8094 34.3685 35.7457C34.4404 35.6821 34.5124 35.5442 34.5775 35.3284L33.2408 32.6408ZM37.5116 33.2738C37.5116 34.409 37.4087 35.2365 37.2065 35.7599H38.5844V33.2738H37.5116ZM40.1542 32.6408H40.8912V34.1402H41.8715C42.1285 34.1402 42.3513 34.1756 42.5364 34.2463C42.7215 34.3206 42.8792 34.4479 43.0026 34.6353C43.126 34.8227 43.1877 35.0385 43.1877 35.2825C43.1877 35.5371 43.1225 35.7528 42.9957 35.9367C42.8655 36.1206 42.7215 36.2444 42.5638 36.3009C42.4062 36.3611 42.1731 36.3929 41.8715 36.3929H40.1542V32.6408ZM40.8912 35.7599H41.6075C41.8338 35.7599 41.9949 35.7457 42.084 35.7245C42.1731 35.6998 42.2554 35.6503 42.3239 35.5689C42.3959 35.4876 42.4302 35.3886 42.4302 35.2719C42.4302 35.1057 42.3719 34.9783 42.2588 34.897C42.1422 34.8121 41.9366 34.7732 41.6384 34.7732H40.8912V35.7599ZM43.6093 32.6408H44.3462V36.3929H43.6093V32.6408ZM47.2802 33.2738H46.7078C46.4165 33.2738 46.2245 33.2809 46.1354 33.295C46.0428 33.3092 45.964 33.3551 45.8989 33.4329C45.8303 33.5107 45.7995 33.6133 45.7995 33.7406C45.7995 33.8715 45.8303 33.9775 45.8955 34.0553C45.9572 34.1331 46.0394 34.1791 46.1388 34.2003C46.2348 34.218 46.437 34.2286 46.7386 34.2286H47.2802V33.2738ZM48 16.6599V26.5052H39.1774C39.4584 26.0101 39.8218 25.4902 40.2776 24.9668C40.7267 24.4399 41.7995 23.379 43.4961 21.7735C45.1894 20.1715 46.365 18.9409 47.0094 18.0815C47.3762 17.6006 47.7087 17.1267 48 16.6599ZM13.2785 14.9589H16.9494C19.3248 14.9589 20.8055 14.8387 21.4019 14.6017C21.988 14.3648 22.4576 13.951 22.7901 13.3711C23.126 12.7876 23.2905 12.0591 23.2905 11.1856C23.2905 10.206 23.0677 9.42092 22.629 8.81266C22.1902 8.21148 21.5664 7.83308 20.7678 7.67748C20.3599 7.61029 19.1534 7.57493 17.1482 7.57493H13.2785V14.9589Z" fill="#2F80ED"/>
</svg>
