<svg width="56" height="48" viewBox="0 0 56 48" fill="none" xmlns="http://www.w3.org/2000/svg">
<g filter="url(#filter0_dd)">
<path fill-rule="evenodd" clip-rule="evenodd" d="M33.2956 35.0102L34.0051 35.233C33.8989 35.6467 33.7138 35.9544 33.4602 36.156C33.2065 36.354 32.8843 36.4565 32.4936 36.4565C32.0103 36.4565 31.6161 36.2833 31.3042 35.9438C30.9923 35.6043 30.838 35.1375 30.838 34.5469C30.838 33.921 30.9923 33.4365 31.3042 33.0899C31.6195 32.7433 32.0308 32.5701 32.5381 32.5701C32.9837 32.5701 33.347 32.708 33.6247 32.9803C33.7892 33.1394 33.9126 33.3693 33.9949 33.6734L33.2682 33.8502C33.2271 33.6557 33.138 33.5037 33.0009 33.3905C32.8638 33.2773 32.6992 33.2208 32.5039 33.2208C32.2331 33.2208 32.0137 33.3198 31.8458 33.5214C31.6778 33.7194 31.5921 34.0447 31.5921 34.4903C31.5921 34.9642 31.6778 35.3037 31.8423 35.5017C32.0069 35.7033 32.2228 35.8059 32.4867 35.8059C32.6821 35.8059 32.85 35.7422 32.9906 35.6149C33.1311 35.484 33.2339 35.2825 33.2956 35.0102ZM4 24.8572H10.6461V31.7143H4V24.8572ZM4 0H10.6461V6.85704H4V0ZM4 8.28574H10.6461V15.1428H4V8.28574ZM4 16.5715H10.6461V23.4285H4V16.5715ZM4 33.143H10.6461V40H4V33.143ZM40.1302 36.3894H43.6401V35.7599H43.3213V32.6408H40.8089V33.0369C40.8089 33.684 40.7849 34.218 40.7369 34.6424C40.6889 35.0667 40.5895 35.4381 40.4387 35.7599H40.1302V36.3894ZM12.4936 0H52V5.49907C51.8355 5.30811 51.6572 5.11714 51.4721 4.93679C49.892 3.39846 47.7258 2.62753 44.9666 2.62753C42.4507 2.62753 40.353 3.29237 38.6769 4.61498C36.9974 5.94112 36.0034 8.13014 35.6847 11.1785L41.0317 11.7266C41.1345 10.1105 41.5116 8.95412 42.1697 8.26452C42.8346 7.56785 43.7189 7.21775 44.8363 7.21775C45.9606 7.21775 46.8449 7.54664 47.4824 8.21148C48.1268 8.87632 48.4456 9.82053 48.4456 11.0547C48.4456 12.1758 48.0754 13.3039 47.3419 14.4461C46.7935 15.2701 45.3162 16.8473 42.9032 19.1707C39.9109 22.0493 37.9023 24.3586 36.8877 26.095C35.8732 27.8349 35.2631 29.6738 35.0608 31.6188H52V32.6408H50.4713C50.108 32.6408 49.8338 32.6691 49.6521 32.7292C49.467 32.7893 49.3196 32.9096 49.2099 33.0864C49.0968 33.2632 49.042 33.4648 49.042 33.6946C49.042 33.9563 49.1174 34.1827 49.2682 34.3701C49.4156 34.561 49.659 34.6813 49.9983 34.7379C49.844 34.8263 49.7138 34.9324 49.6075 35.0491C49.5047 35.1658 49.3642 35.3709 49.1894 35.6609L48.7472 36.3929H49.6247L50.1525 35.5725C50.3822 35.2188 50.5467 35.0031 50.6392 34.9324C50.7352 34.8616 50.8997 34.8263 51.1328 34.8263H51.2802V36.3929H52V40H12.4936V31.7143H17.2785V19.5845H18.2862C19.4276 19.5845 20.2639 19.6941 20.7952 19.9098C21.3196 20.1255 21.8166 20.5322 22.2862 21.1122C22.7592 21.6992 23.6332 23.1209 24.9083 25.3735L28.4627 31.7143H34.389L31.3967 26.049C30.2177 23.7892 29.2819 22.2155 28.5827 21.3279C27.8937 20.4438 27.0129 19.6304 25.9434 18.8949C28.0925 18.5236 29.7035 17.6289 30.7832 16.2108C31.8629 14.7891 32.401 12.9927 32.401 10.8072C32.401 9.09203 32.0411 7.56785 31.3282 6.2311C30.6118 4.89789 29.6624 3.97136 28.4696 3.45151C27.2802 2.93166 25.371 2.66643 22.7489 2.66643H12.4936V0ZM35.3282 36.3929V33.2738H34.2519V32.6408H37.138V33.2738H36.0651V36.3929H35.3282ZM37.2408 32.6408H38.0668L38.9135 34.5823L39.6401 32.6408H40.4045L39.174 35.4911C39.0403 35.8023 38.9066 36.0357 38.7661 36.1984C38.629 36.3575 38.4473 36.4389 38.2279 36.4389C38.012 36.4389 37.844 36.4247 37.7206 36.3964V35.8306C37.8235 35.8377 37.9195 35.8412 38.0017 35.8412C38.1731 35.8412 38.2931 35.8094 38.3685 35.7457C38.4404 35.6821 38.5124 35.5442 38.5775 35.3284L37.2408 32.6408ZM41.5116 33.2738C41.5116 34.409 41.4087 35.2365 41.2065 35.7599H42.5844V33.2738H41.5116ZM44.1542 32.6408H44.8912V34.1402H45.8715C46.1285 34.1402 46.3513 34.1756 46.5364 34.2463C46.7215 34.3206 46.8792 34.4479 47.0026 34.6353C47.126 34.8227 47.1877 35.0385 47.1877 35.2825C47.1877 35.5371 47.1225 35.7528 46.9957 35.9367C46.8655 36.1206 46.7215 36.2444 46.5638 36.3009C46.4062 36.3611 46.1731 36.3929 45.8715 36.3929H44.1542V32.6408ZM44.8912 35.7599H45.6075C45.8338 35.7599 45.9949 35.7457 46.084 35.7245C46.1731 35.6998 46.2554 35.6503 46.3239 35.5689C46.3959 35.4876 46.4302 35.3886 46.4302 35.2719C46.4302 35.1057 46.3719 34.9783 46.2588 34.897C46.1422 34.8121 45.9366 34.7732 45.6384 34.7732H44.8912V35.7599ZM47.6093 32.6408H48.3462V36.3929H47.6093V32.6408ZM51.2802 33.2738H50.7078C50.4165 33.2738 50.2245 33.2809 50.1354 33.295C50.0428 33.3092 49.964 33.3551 49.8989 33.4329C49.8303 33.5107 49.7995 33.6133 49.7995 33.7406C49.7995 33.8715 49.8303 33.9775 49.8955 34.0553C49.9572 34.1331 50.0394 34.1791 50.1388 34.2003C50.2348 34.218 50.437 34.2286 50.7386 34.2286H51.2802V33.2738ZM52 16.6599V26.5052H43.1774C43.4584 26.0101 43.8218 25.4902 44.2776 24.9668C44.7267 24.4399 45.7995 23.379 47.4961 21.7735C49.1894 20.1715 50.365 18.9409 51.0094 18.0815C51.3762 17.6006 51.7087 17.1267 52 16.6599ZM17.2785 14.9589H20.9494C23.3248 14.9589 24.8055 14.8387 25.4019 14.6017C25.988 14.3648 26.4576 13.951 26.7901 13.3711C27.126 12.7876 27.2905 12.0591 27.2905 11.1856C27.2905 10.206 27.0677 9.42092 26.629 8.81266C26.1902 8.21148 25.5664 7.83308 24.7678 7.67748C24.3599 7.61029 23.1534 7.57493 21.1482 7.57493H17.2785V14.9589Z" fill="#2F80ED"/>
</g>
<defs>
<filter id="filter0_dd" x="0" y="0" width="56" height="48" filterUnits="userSpaceOnUse" color-interpolation-filters="sRGB">
<feFlood flood-opacity="0" result="BackgroundImageFix"/>
<feColorMatrix in="SourceAlpha" type="matrix" values="0 0 0 0 0 0 0 0 0 0 0 0 0 0 0 0 0 0 127 0" result="hardAlpha"/>
<feOffset dy="4"/>
<feGaussianBlur stdDeviation="2"/>
<feComposite in2="hardAlpha" operator="out"/>
<feColorMatrix type="matrix" values="0 0 0 0 0 0 0 0 0 0 0 0 0 0 0 0 0 0 0.25 0"/>
<feBlend mode="normal" in2="BackgroundImageFix" result="effect1_dropShadow"/>
<feColorMatrix in="SourceAlpha" type="matrix" values="0 0 0 0 0 0 0 0 0 0 0 0 0 0 0 0 0 0 127 0" result="hardAlpha"/>
<feOffset dy="4"/>
<feGaussianBlur stdDeviation="2"/>
<feComposite in2="hardAlpha" operator="out"/>
<feColorMatrix type="matrix" values="0 0 0 0 0 0 0 0 0 0 0 0 0 0 0 0 0 0 0.25 0"/>
<feBlend mode="normal" in2="effect1_dropShadow" result="effect2_dropShadow"/>
<feBlend mode="normal" in="SourceGraphic" in2="effect2_dropShadow" result="shape"/>
</filter>
</defs>
</svg>
